<svg xmlns="http://www.w3.org/2000/svg" version="1.1" xmlns:xlink="http://www.w3.org/1999/xlink" xmlns:svgjs="http://svgjs.dev/svgjs" viewBox="0 0 800 800" opacity="1"><defs><linearGradient x1="50%" y1="0%" x2="50%" y2="100%" id="ccchaos-grad"><stop stop-color="hsl(205, 69%, 60%)" stop-opacity="1" offset="0%"></stop><stop stop-color="hsl(205, 69%, 80%)" stop-opacity="1" offset="100%"></stop></linearGradient></defs><g stroke-width="1" stroke="url(#ccchaos-grad)" fill="none" stroke-linecap="round"><path d="M372.26 67.05C382.62 64.9 393.3 63.8 404.29 63.73 415.35 64.23 426.84 65.81 438.79 68.43 450.93 71.61 463.68 75.77 477.07 80.82 490.77 86.31 505.2 92.57 520.35 99.49 535.77 106.63 551.8 114.28 568.27 122.34 584.65 130.38 601.05 138.69 617.05 147.18 632.18 155.45 646.16 163.81 658.44 172.2 668.8 180.24 676.67 188.28 681.58 196.3 683.93 203.92 683.1 211.54 679.13 219.17 673.26 226.43 665.19 233.75 655.7 241.16 646.67 248.26 638.27 255.53 631.69 263 628.66 270.23 629.39 277.74 634.58 285.54 644.77 293.18 659.41 301.18 677.85 309.55 699.02 317.82 721.29 326.51 742.77 335.63 761.79 344.69 776.35 354.22 784.86 364.23 786.9 374.21 781.64 384.71 769.42 395.73 752.17 406.75 731.41 418.08 709.43 429.7 688.6 441.35 670.62 453.31 656.98 465.57 648.9 477.89 646.4 490.53 649.1 503.44 656.83 516.41 667.8 529.65 680.49 543.08 694.28 556.52 706.83 570.09 716.89 583.67 724.34 597.13 727.64 610.46 726.57 623.48 721.69 636.16 712.71 648.3 700.27 659.71 685.15 670.45 667.92 680.18 649.44 688.67 630.24 696.17 611.08 702.2 592.55 706.57 574.75 709.76 558.2 711.19 543.06 710.81 529.17 709.35 516.66 706.23 505.37 701.57 495.19 696.33 485.87 690 477.17 682.91 469.14 676.1 461.34 669.21 453.54 662.64 446.03 657.41 438.26 653.22 430.08 650.41 421.98 649.77 413.34 650.96 404.12 654.09 394.88 659.61 385.04 666.98 374.62 675.98 364.19 686.73 353.46 698.12 342.54 709.63 331.69 721.5 320.73 732.52 309.79 742.25 299.01 751.01 288.36 757.75 277.98 762.24 267.89 764.97 258.18 765.18 249 762.92 240.2 758.76 232.02 752.3 224.56 743.78 217.48 733.75 211.13 722.12 205.51 709.21 200.12 695.45 195.33 680.92 191.06 665.94 186.68 650.76 182.56 635.53 178.55 620.46 174 605.66 169.29 591.25 164.3 577.34 158.48 563.91 152.26 551.04 145.65 538.71 138.29 526.91 130.72 515.59 123.08 504.7 115.2 494.25 107.65 484.09 100.68 474.18 94.12 464.55 88.52 455.02 84.05 445.53 80.39 436.2 77.99 426.8 76.84 417.3 76.36 407.85 76.9 398.23 78.3 388.42 79.78 378.62 81.66 368.59 83.76 358.36 85.24 348.13 86.57 337.94 87.66 327.84 87.94 317.76 88.06 307.8 88.13 298.02 87.76 288.29 87.71 278.78 88.19 269.57 88.9 260.45 90.54 251.67 93.26 243.28 96.72 235.02 101.44 227.2 107.37 219.86 114.11 212.67 121.91 205.97 130.58 199.8 139.65 193.74 149.23 188.19 159.08 183.15 168.75 178.15 178.36 173.59 187.77 169.46 196.58 165.23 205.03 161.34 213.13 157.74 220.49 153.88 227.56 150.2 234.43 146.66 240.69 142.71 246.93 138.8 253.26 134.91 259.21 130.5 265.43 126.06 272 121.59 278.4 116.61 285.26 111.62 292.62 106.67 299.92 101.33 307.75 96.14 316.11 91.17 324.45 86.04 333.31 81.31 342.68 77.09 352.03 72.99 361.89 69.61 372.25 67.05" stroke-dasharray="112 51" transform="rotate(0, 400, 400)" opacity="0.40"></path><path d="M384.38 80.28C394.61 78.08 405.27 76.88 416.38 76.68 427.55 77.04 439.24 78.43 451.46 80.84 463.82 83.79 476.77 87.7 490.29 92.49 503.98 97.72 518.22 103.71 532.91 110.37 547.6 117.29 562.55 124.73 577.49 132.6 592.01 140.5 606.06 148.7 619.25 157.12 631.3 165.38 641.85 173.76 650.44 182.2 657.16 190.36 661.42 198.53 662.96 206.7 662.46 214.52 659.34 222.34 653.85 230.17 647.31 237.65 639.47 245.17 631.13 252.76 623.97 260.06 618.09 267.48 614.47 275.05 614.46 282.4 618.1 289.96 625.81 297.78 637.82 305.42 653.51 313.38 672.14 321.67 692.66 329.85 713.59 338.4 733.28 347.37 750.34 356.26 763.08 365.59 770.18 375.38 771.43 385.13 766.1 395.38 754.51 406.14 738.41 416.9 719.05 427.94 698.4 439.24 678.54 450.58 660.93 462.19 646.94 474.06 637.74 485.96 633.45 498.12 633.92 510.48 639.16 522.87 647.74 535.42 658.44 548.07 670.82 560.66 682.83 573.26 693.28 585.75 702.05 598.05 707.56 610.09 709.42 621.7 708.06 632.91 702.88 643.49 694.26 653.26 682.89 662.35 669.01 670.41 653.35 677.23 636.39 683.15 618.77 687.66 601.07 690.65 583.46 692.62 566.5 693.01 550.47 691.83 535.22 689.79 521.1 686.34 508.08 681.63 495.96 676.55 484.77 670.64 474.35 664.17 464.59 658.11 455.31 652.11 446.34 646.5 437.72 642.19 429.15 638.88 420.5 636.85 411.97 636.8 403.21 638.39 394.15 641.71 385.11 647.16 375.71 654.24 365.96 662.75 356.21 672.83 346.36 683.46 336.48 694.22 326.66 705.34 316.88 715.74 307.26 725.01 297.77 733.51 288.53 740.25 279.65 745.01 270.99 748.26 262.79 749.26 255.13 748.02 247.75 745.08 240.97 740.01 234.84 732.98 228.92 724.53 223.61 714.48 218.89 703.11 214.17 690.84 209.88 677.68 205.91 663.92 201.62 649.81 197.41 635.47 193.13 621.09 188.21 606.81 183.01 592.74 177.46 579 171.09 565.59 164.33 552.61 157.22 540.08 149.48 527.96 141.61 516.28 133.79 505.01 125.86 494.11 118.37 483.54 111.56 473.25 105.25 463.23 99.96 453.39 95.85 443.67 92.59 434.12 90.59 424.59 89.84 415.08 89.77 405.63 90.68 396.12 92.41 386.54 94.2 376.98 96.35 367.3 98.66 357.53 100.32 347.77 101.76 338.13 102.89 328.66 103.16 319.21 103.19 309.94 103.09 300.9 102.48 291.91 102.12 283.18 102.19 274.77 102.41 266.43 103.49 258.45 105.57 250.87 108.36 243.37 112.36 236.31 117.57 229.71 123.63 223.19 130.8 217.14 138.92 211.58 147.59 206.06 156.9 200.99 166.65 196.38 176.42 191.73 186.28 187.47 196.08 183.57 205.46 179.51 214.58 175.72 223.4 172.17 231.58 168.33 239.45 164.62 247.05 161 254.04 156.96 260.9 152.94 267.71 148.92 274.07 144.4 280.55 139.84 287.25 135.25 293.66 130.18 300.42 125.11 307.58 120.09 314.59 114.72 322.09 109.49 330.09 104.5 338.02 99.37 346.5 94.64 355.54 90.4 364.54 86.31 374.14 82.9 384.37 80.29" stroke-dasharray="131 51" transform="rotate(6.045454545454546, 400, 400)" opacity="0.47"></path><path d="M399.11 93.52C409.23 91.27 419.83 89.98 430.87 89.66 441.97 89.87 453.57 91.08 465.64 93.26 477.79 95.98 490.41 99.62 503.42 104.12 516.46 109.06 529.79 114.76 543.26 121.12 556.52 127.76 569.66 134.95 582.39 142.58 594.49 150.29 605.74 158.33 615.81 166.61 624.65 174.8 631.83 183.14 637 191.57 640.55 199.79 641.85 208.05 640.84 216.32 638.39 224.3 633.98 232.29 627.95 240.28 621.65 247.97 614.84 255.69 608.27 263.46 603.4 270.95 600.25 278.54 599.58 286.25 602.4 293.74 608.61 301.41 618.39 309.28 631.76 316.98 648.05 324.95 666.48 333.21 686.08 341.35 705.53 349.83 723.39 358.66 738.55 367.43 749.57 376.59 755.38 386.17 755.92 395.72 750.56 405.72 739.6 416.18 724.61 426.64 706.61 437.35 687.28 448.27 668.44 459.21 651.33 470.39 637.18 481.74 627.09 493.12 621.27 504.68 619.73 516.35 622.61 528.01 628.81 539.74 637.38 551.45 648.03 563.07 658.99 574.58 669.2 585.86 678.58 596.91 685.56 607.59 689.63 617.75 691.16 627.48 689.32 636.52 684.27 644.7 676.62 652.24 666.29 658.74 653.85 664.05 639.79 668.56 624.52 671.76 608.58 673.57 592.19 674.55 575.86 674.14 559.95 672.37 544.37 669.95 529.53 666.37 515.54 661.77 502.17 656.99 489.64 651.58 477.9 645.8 466.7 640.52 456.13 635.4 446.05 630.71 436.32 627.28 426.88 624.79 417.63 623.47 408.54 623.96 399.48 625.9 390.41 629.35 381.37 634.71 372.23 641.48 363 649.51 353.76 658.94 344.64 668.85 335.69 678.86 326.76 689.25 318.04 699.02 309.61 707.82 301.26 716.02 293.27 722.68 285.7 727.61 278.28 731.27 271.33 732.92 264.93 732.57 258.66 730.72 252.94 726.91 247.77 721.27 242.64 714.31 237.97 705.79 233.72 695.95 229.3 685.19 225.11 673.46 221.06 661.01 216.56 648.11 211.97 634.82 207.19 621.35 201.71 607.81 195.9 594.32 189.71 581.01 182.77 567.88 175.48 555.05 167.92 542.56 159.88 530.38 151.81 518.56 143.91 507.12 136.06 495.97 128.76 485.14 122.21 474.62 116.26 464.33 111.39 454.26 107.71 444.39 104.91 434.67 103.35 425.06 103.02 415.55 103.33 406.11 104.59 396.71 106.63 387.33 108.7 377.98 111.08 368.61 113.57 359.26 115.39 349.9 116.93 340.76 118.12 331.85 118.41 322.95 118.4 314.3 118.19 305.94 117.42 297.59 116.8 289.55 116.52 281.86 116.3 274.21 116.85 266.92 118.3 260.03 120.39 253.2 123.63 246.77 128.04 240.79 133.3 234.84 139.71 229.32 147.12 224.23 155.19 219.14 164.03 214.44 173.44 210.14 183.06 205.74 192.94 201.67 202.92 197.91 212.67 193.94 222.29 190.19 231.71 186.62 240.63 182.72 249.27 178.93 257.66 175.2 265.49 171.05 273.12 166.89 280.62 162.72 287.66 158.08 294.7 153.4 301.82 148.69 308.62 143.54 315.64 138.41 322.95 133.33 330.06 127.94 337.57 122.7 345.52 117.71 353.36 112.6 361.72 107.89 370.64 103.67 379.5 99.59 388.97 96.17 399.1 93.52" stroke-dasharray="33 59" transform="rotate(12.090909090909092, 400, 400)" opacity="0.68"></path><path d="M413.99 106.76C423.98 104.48 434.37 103.11 445.13 102.67 455.92 102.73 467.1 103.76 478.6 105.71 490.11 108.17 501.89 111.53 513.84 115.72 525.69 120.35 537.54 125.73 549.23 131.76 560.55 138.09 571.43 144.97 581.59 152.31 591.02 159.77 599.37 167.59 606.36 175.67 612.22 183.73 616.41 191.97 618.74 200.33 619.8 208.53 618.99 216.81 616.36 225.12 612.9 233.2 608.13 241.31 602.47 249.42 597.17 257.28 592.02 265.17 587.66 273.08 585.31 280.76 584.92 288.51 587.05 296.35 592.38 303.99 600.74 311.77 612.13 319.71 626.38 327.5 642.85 335.51 660.75 343.75 679.22 351.88 697.08 360.3 713.1 369.02 726.42 377.68 735.82 386.69 740.45 396.05 740.38 405.39 735.03 415.12 724.7 425.25 710.78 435.38 694.09 445.69 676.06 456.16 658.28 466.65 641.77 477.29 627.65 488.04 616.91 498.79 609.83 509.63 606.52 520.5 607.22 531.33 611.11 542.13 617.48 552.8 626.17 563.36 635.69 573.7 645.13 583.72 654.45 593.48 662.16 602.79 667.71 611.51 671.42 619.81 672.3 627.37 670.37 634.07 666.13 640.18 659.29 645.28 650.2 649.26 639.38 652.56 626.97 654.67 613.47 655.53 599.13 655.73 584.34 654.74 569.48 652.59 554.53 649.99 539.92 646.44 525.82 642.09 512.02 637.71 498.87 632.89 486.41 627.83 474.32 623.35 462.85 619.09 451.96 615.29 441.36 612.69 431.19 610.95 421.4 610.28 411.77 611.23 402.39 613.47 393.21 617.02 384.08 622.26 375.09 628.72 366.22 636.27 357.35 645.07 348.79 654.28 340.57 663.57 332.34 673.24 324.48 682.38 317 690.69 309.55 698.53 302.53 705.05 295.98 710.06 286.45 715.12 269.82 714.37 262.64 708.66 257.88 703.09 253.44 696.02 249.25 687.66 244.74 678.39 240.32 668.12 235.88 657.05 230.89 645.45 225.72 633.35 220.28 620.93 214.14 608.33 207.66 595.62 200.82 582.96 193.35 570.35 185.61 557.91 177.7 545.71 169.48 533.7 161.36 521.98 153.52 510.57 145.88 499.38 138.89 488.48 132.73 477.89 127.25 467.48 122.86 457.32 119.69 447.39 117.38 437.59 116.28 427.96 116.37 418.49 117.06 409.1 118.65 399.81 120.96 390.64 123.26 381.49 125.83 372.41 128.47 363.42 130.43 354.43 132.08 345.73 133.34 337.32 133.68 328.92 133.68 320.81 133.42 313.02 132.54 305.24 131.73 297.8 131.17 290.71 130.58 283.64 130.64 276.94 131.5 270.63 132.9 264.34 135.37 258.44 138.95 252.95 143.33 247.44 148.86 242.33 155.43 237.6 162.72 232.82 170.86 228.38 179.7 224.28 188.92 220.04 198.55 216.07 208.43 212.35 218.28 208.39 228.16 204.61 237.96 200.96 247.43 196.98 256.71 193.06 265.78 189.18 274.4 184.9 282.82 180.59 291.07 176.27 298.89 171.51 306.64 166.71 314.38 161.89 321.79 156.68 329.31 151.5 337.01 146.38 344.49 140.99 352.26 135.77 360.38 130.8 368.38 125.74 376.81 121.06 385.72 116.87 394.58 112.83 403.98 109.43 413.98 106.76" stroke-dasharray="70 134" transform="rotate(18.136363636363637, 400, 400)" opacity="0.99"></path><path d="M426.53 120C436.3 117.69 446.32 116.26 456.56 115.71 466.81 115.63 477.26 116.47 487.83 118.19 498.35 120.4 508.91 123.46 519.38 127.33 529.67 131.62 539.7 136.64 549.28 142.31 558.44 148.29 566.91 154.82 574.47 161.82 581.31 168.98 586.98 176.52 591.28 184.35 594.64 192.19 596.48 200.26 596.74 208.47 596.15 216.59 594.12 224.81 590.82 233.09 587.24 241.2 582.97 249.35 578.42 257.52 574.7 265.49 571.62 273.48 569.72 281.5 569.92 289.32 572.16 297.2 576.79 305.14 584.25 312.91 594.29 320.79 606.79 328.79 621.49 336.65 637.75 344.68 654.83 352.9 671.97 361.03 688.17 369.39 702.37 377.99 713.94 386.54 721.84 395.38 725.41 404.51 724.8 413.61 719.51 423.04 709.79 432.8 696.9 442.56 681.48 452.43 664.75 462.38 648.04 472.33 632.24 482.37 618.3 492.43 607.15 502.48 599.06 512.53 594.24 522.51 592.99 532.43 594.71 542.23 598.89 551.82 605.51 561.27 613.31 570.42 621.54 579.17 630.22 587.66 637.99 595.63 644.3 602.98 650.88 613.03 649.73 628.27 642 633.07 634.44 635.37 625.13 636.6 614.44 636.74 602.7 636.38 590.12 635.01 577.06 632.68 563.59 630.07 550.05 626.7 536.67 622.7 523.31 618.82 510.32 614.63 497.81 610.32 485.5 606.63 473.7 603.21 462.44 600.25 451.39 598.4 440.81 597.36 430.69 597.26 420.7 598.62 411.09 601.09 401.83 604.71 392.62 609.8 383.71 615.96 375.08 623.03 366.46 631.22 358.29 639.75 350.58 648.34 342.86 657.31 335.58 665.82 328.76 673.62 321.92 681.08 315.54 687.4 309.62 692.42 300.9 697.87 285.4 699.27 278.43 695.19 273.64 690.88 269.05 685.17 264.56 678.21 259.66 670.4 254.72 661.56 249.66 651.88 244.02 641.65 238.14 630.82 231.97 619.56 225.17 608.04 218.05 596.29 210.65 584.46 202.75 572.59 194.69 560.76 186.59 549.06 178.34 537.45 170.32 526.04 162.71 514.87 155.43 503.86 148.87 493.09 143.21 482.59 138.28 472.23 134.46 462.11 131.83 452.24 130.04 442.48 129.42 432.92 129.92 423.56 130.97 414.27 132.85 405.14 135.39 396.18 137.89 387.24 140.62 378.43 143.38 369.78 145.46 361.13 147.21 352.82 148.54 344.85 148.97 336.87 149.02 329.22 148.76 321.93 147.84 314.63 146.91 307.68 146.14 301.1 145.24 294.5 144.88 288.28 145.21 282.43 145.95 276.56 147.67 271.06 150.41 265.94 153.89 260.77 158.46 255.94 164.08 251.46 170.44 246.88 177.71 242.6 185.77 238.6 194.32 234.43 203.42 230.48 212.91 226.73 222.57 222.73 232.39 218.85 242.27 215.08 252.02 210.98 261.68 206.92 271.21 202.87 280.44 198.44 289.5 193.99 298.4 189.52 306.97 184.64 315.41 179.74 323.79 174.84 331.88 169.59 339.99 164.37 348.18 159.24 356.16 153.88 364.32 148.7 372.71 143.77 380.98 138.78 389.57 134.17 398.52 130.03 407.42 126.04 416.74 122.67 426.52 120" stroke-dasharray="73 110" transform="rotate(24.181818181818183, 400, 400)" opacity="0.36"></path><path d="M434.63 133.24C444.06 130.92 453.55 129.43 463.07 128.78 472.57 128.57 482.06 129.22 491.45 130.7 500.75 132.66 509.86 135.42 518.66 138.95 527.23 142.89 535.32 147.54 542.78 152.82 549.81 158.41 556.02 164.55 561.24 171.17 565.85 177.97 569.32 185.16 571.53 192.67 573.07 200.25 573.36 208.06 572.41 216.05 571.02 224 568.66 232.08 565.56 240.25 562.63 248.3 559.53 256.42 556.64 264.56 554.88 272.56 554.09 280.59 554.66 288.64 557.31 296.54 561.9 304.48 568.65 312.48 577.78 320.32 589.02 328.25 602.16 336.27 616.88 344.17 632.59 352.21 648.6 360.38 664.29 368.47 678.78 376.75 691.21 385.2 701.12 393.62 707.64 402.25 710.25 411.11 709.19 419.95 703.99 429.04 694.89 438.38 682.99 447.72 668.8 457.09 653.32 466.46 637.72 475.84 622.7 485.21 609.1 494.52 597.74 503.81 588.9 513.01 582.84 522.07 579.89 531.05 579.63 539.83 581.73 548.32 586.23 556.66 592.14 564.63 598.85 572.15 606.43 579.42 613.68 586.15 620.07 592.23 630.42 606.39 621.57 617.49 610.64 617.41 601.74 616.7 591.75 615.14 580.98 612.79 569.59 610.31 557.79 607.24 545.82 603.7 533.64 600.37 521.54 596.85 509.67 593.3 497.82 590.38 486.31 587.75 475.21 585.57 464.21 584.42 453.63 584 443.49 584.41 433.44 586.11 423.8 588.77 414.57 592.41 405.38 597.35 396.56 603.18 388.11 609.79 379.67 617.39 371.75 625.26 364.36 633.18 356.93 641.46 349.99 649.35 343.52 656.64 336.99 663.68 330.91 669.74 325.25 674.69 316.79 680.4 301.27 683.55 293.96 680.9 288.83 677.73 283.78 673.26 278.72 667.61 273.22 661.16 267.6 653.71 261.8 645.41 255.46 636.55 248.86 627.03 241.99 617.01 234.6 606.67 226.96 596.01 219.13 585.16 210.97 574.18 202.77 563.14 194.66 552.13 186.57 541.13 178.82 530.24 171.6 519.51 164.82 508.86 158.82 498.4 153.76 488.17 149.46 478.04 146.25 468.12 144.2 458.44 142.95 448.84 142.79 439.45 143.68 430.28 145.06 421.16 147.2 412.24 149.93 403.51 152.58 394.81 155.43 386.29 158.28 377.96 160.47 369.63 162.31 361.66 163.73 354.07 164.26 346.46 164.39 339.22 164.18 332.33 163.28 325.43 162.3 318.88 161.4 312.69 159.93 303.55 160.12 286.97 162.55 279.5 165.12 274.55 168.72 269.91 173.33 265.57 178.65 261.1 184.91 256.88 192 252.9 199.67 248.73 207.98 244.73 216.8 240.9 225.93 236.8 235.38 232.8 245.01 228.88 254.69 224.63 264.4 220.41 274.09 216.2 283.63 211.63 293.08 207.03 302.4 202.43 311.5 197.46 320.49 192.48 329.37 187.51 338.04 182.24 346.67 177.02 355.29 171.91 363.76 166.6 372.29 161.48 380.92 156.62 389.47 151.72 398.19 147.2 407.13 143.13 416.03 139.22 425.19 135.9 434.62 133.24" stroke-dasharray="14 135" transform="rotate(30.227272727272727, 400, 400)" opacity="0.31"></path><path d="M436.94 146.47C445.9 144.16 454.72 142.63 463.37 141.88 471.99 141.55 480.39 142.02 488.5 143.27 496.5 144.96 504.12 147.42 511.25 150.61 518.16 154.18 524.44 158.44 529.99 163.3 535.19 168.48 539.52 174.2 542.9 180.39 545.83 186.79 547.74 193.58 548.62 200.71 549.11 207.94 548.65 215.43 547.35 223.12 545.98 230.82 544.06 238.68 541.85 246.65 540.17 254.55 538.71 262.53 537.79 270.57 538.17 278.5 539.67 286.48 542.59 294.49 547.4 302.38 553.97 310.31 562.38 318.27 572.7 326.13 584.66 334.04 597.98 342.02 612.34 349.91 627.2 357.89 641.96 365.96 656.1 373.97 668.89 382.11 679.6 390.38 687.96 398.61 693.23 407 694.99 415.55 693.55 424.08 688.48 432.79 679.98 441.66 669.04 450.53 656.03 459.36 641.79 468.11 627.3 476.86 613.13 485.52 600 494.06 588.63 502.56 579.29 510.89 572.25 519.01 567.88 527.05 565.87 534.81 566.04 542.23 568.48 549.5 572.44 556.36 577.43 562.74 583.56 568.89 589.81 574.48 595.73 579.44 608.44 594.5 591.92 596.09 579.99 593.09 571 590.86 561.36 588.18 551.28 585.17 540.83 582.43 530.19 579.59 519.53 576.79 508.74 574.6 498.08 572.72 487.64 571.26 477.21 570.74 467.06 570.87 457.26 571.72 447.5 573.7 438.09 576.5 429.06 580.13 420.06 584.89 411.41 590.39 403.13 596.56 394.85 603.58 387.11 610.82 379.86 618.08 372.58 625.7 365.77 632.98 359.39 639.73 352.93 646.33 346.86 652.1 341.13 656.92 332.49 662.74 316.07 667.27 308.02 665.85 302.35 663.67 296.66 660.31 290.9 655.86 284.72 650.68 278.37 644.55 271.83 637.57 264.83 630.05 257.61 621.84 250.17 613.09 242.35 603.99 234.37 594.49 226.32 584.72 218.11 574.77 209.98 564.66 202.07 554.49 194.33 544.27 187.04 534.06 180.36 523.94 174.2 513.84 168.87 503.87 164.49 494.07 160.87 484.32 158.3 474.75 156.85 465.39 156.12 456.08 156.42 446.97 157.67 438.08 159.34 429.22 161.69 420.57 164.57 412.13 167.34 403.7 170.27 395.47 173.19 387.46 175.46 379.44 177.38 371.8 178.89 364.54 179.54 357.27 179.77 350.35 179.66 343.8 178.84 337.22 177.88 331 176.92 325.12 175.19 316.4 174.08 300.52 175.46 293.3 177.17 288.49 179.82 283.95 183.4 279.66 187.64 275.22 192.8 271 198.8 266.97 205.4 262.74 212.71 258.66 220.62 254.69 228.93 250.48 237.68 246.33 246.73 242.24 255.97 237.84 265.38 233.46 274.86 229.09 284.35 224.39 293.84 219.68 303.25 214.96 312.58 209.93 321.82 204.9 330.96 199.89 339.98 194.63 348.93 189.44 357.8 184.37 366.58 179.15 375.33 174.12 384.09 169.35 392.78 164.57 401.52 160.16 410.32 156.19 419.11 152.37 427.98 149.11 436.93 146.48" stroke-dasharray="84 133" transform="rotate(36.27272727272727, 400, 400)" opacity="0.11"></path><path d="M433.08 159.71C441.44 157.42 449.49 155.86 457.21 155.02 464.9 154.57 472.21 154.87 479.08 155.9 485.85 157.33 492.1 159.48 497.77 162.32 503.24 165.52 508.05 169.37 512.1 173.8 515.91 178.54 518.9 183.81 521.06 189.54 522.96 195.49 524.05 201.84 524.35 208.53 524.55 215.35 524.11 222.45 523.19 229.77 522.5 237.13 521.63 244.68 520.82 252.35 520.75 260.01 521.17 267.77 522.34 275.6 524.81 283.37 528.43 291.2 533.4 299.06 540 306.85 548.1 314.67 557.67 322.53 568.7 330.3 580.91 338.12 594 345.98 607.68 353.77 621.46 361.62 634.82 369.53 647.36 377.39 658.47 385.34 667.56 393.36 674.48 401.35 678.61 409.44 679.64 417.63 677.89 425.8 672.98 434.08 665.08 442.43 655.06 450.79 643.18 459.04 630.14 467.15 616.77 475.24 603.51 483.18 590.96 490.92 579.76 498.63 570.16 506.11 562.41 513.3 556.88 520.43 553.4 527.22 551.84 533.64 552.37 539.92 554.4 545.76 557.59 551.11 562.06 556.26 566.97 560.86 571.94 564.86 584.88 576.34 563.23 570.73 551.57 567.18 543.16 565.05 534.34 562.88 525.27 560.8 515.98 559.32 506.59 558.12 497.23 557.32 487.8 557.36 478.48 557.95 469.35 559.17 460.21 561.38 451.3 564.28 442.67 567.87 434.04 572.42 425.69 577.6 417.62 583.32 409.56 589.79 401.95 596.42 394.77 603.05 387.56 610.02 380.73 616.69 374.27 622.92 367.71 629.06 361.46 634.5 355.47 639.12 349.33 643.32 343.37 646.54 337.56 648.72 331.51 650.28 325.53 650.73 319.55 650.09 313.27 648.77 306.91 646.38 300.45 643 293.62 638.98 286.64 634.05 279.48 628.32 271.98 622.08 264.31 615.15 256.52 607.66 248.49 599.81 240.42 591.51 232.4 582.87 224.36 574.02 216.53 564.94 209.04 555.72 201.83 546.41 195.16 537.02 189.16 527.65 183.73 518.26 179.15 508.92 175.51 499.69 172.59 490.48 170.69 481.39 169.81 472.47 169.6 463.59 170.31 454.87 171.88 446.34 173.81 437.84 176.33 429.52 179.32 421.41 182.17 413.31 185.14 405.4 188.09 397.71 190.42 390.01 192.42 382.68 194.02 375.73 194.79 368.75 195.16 362.13 195.17 355.85 194.04 346.56 190.81 329.52 189.49 321.73 188.72 314.11 191.01 300.02 194.48 293.46 197.65 289 201.69 284.73 206.53 280.6 211.96 276.28 218.12 272.08 224.92 267.97 232.19 263.61 239.96 259.32 248.14 255.06 256.61 250.53 265.35 246.01 274.27 241.5 283.33 236.7 292.46 231.89 301.61 227.09 310.79 222.02 319.92 216.97 328.99 211.97 338.03 206.76 346.98 201.63 355.84 196.64 364.66 191.52 373.41 186.61 382.06 181.97 390.7 177.33 399.27 173.05 407.78 169.19 416.28 165.49 424.72 162.3 433.07 159.71" stroke-dasharray="81 106" transform="rotate(42.31818181818182, 400, 400)" opacity="0.42"></path><path d="M423.69 172.95C431.35 170.69 438.61 169.11 445.43 168.2 455.37 167.71 472.61 170.69 479.72 174.1 486 178.65 495.04 191.03 497.77 198.67 499.29 204.14 500.23 210 500.66 216.2 501.19 222.55 501.39 229.2 501.42 236.07 501.87 243.03 502.42 250.18 503.28 257.48 504.98 264.8 507.3 272.24 510.46 279.76 514.82 287.27 520.25 294.85 526.87 302.46 534.8 310.04 543.94 317.66 554.18 325.3 565.44 332.9 577.48 340.53 589.99 348.18 602.71 355.78 615.23 363.42 627.09 371.09 638.03 378.72 647.51 386.4 655.08 394.1 660.68 401.79 663.79 409.53 664.19 417.29 662.2 425.05 657.49 432.85 650.17 440.66 641.04 448.48 630.25 456.11 618.38 463.55 606.12 470.98 593.8 478.19 581.94 485.16 571.08 492.09 561.42 498.74 553.22 505.07 546.83 511.33 542.13 517.24 539.1 522.74 538.03 530.6 543.95 543.71 549.33 548.8 560.25 554.9 536.16 547.51 525.4 545.36 517.82 544.51 509.97 543.94 501.94 543.72 493.8 544.24 485.59 545.25 477.38 546.77 469.14 549.15 460.97 552.1 452.91 555.61 444.86 559.95 436.93 564.8 429.17 570.08 421.41 576.01 413.97 582.06 406.85 588.09 399.7 594.43 392.82 600.51 386.19 606.21 379.49 611.88 372.98 616.95 366.63 621.33 360.15 625.4 353.77 628.64 347.43 630.98 340.91 632.84 334.37 633.75 327.79 633.7 320.97 633.09 314.04 631.53 307 629.08 299.71 626.09 292.28 622.25 284.72 617.66 276.96 612.61 269.11 606.9 261.23 600.61 253.26 593.98 245.36 586.88 237.62 579.39 230 571.68 222.7 563.69 215.82 555.49 209.31 547.16 203.4 538.7 198.2 530.18 193.58 521.61 189.79 513.02 186.92 504.48 184.72 495.93 183.46 487.45 183.14 479.08 183.4 470.73 184.49 462.49 186.34 454.42 188.46 446.36 191.11 438.45 194.16 430.72 197.05 423 200.04 415.45 203 408.09 205.37 400.73 207.43 393.72 209.1 387.05 210.01 380.36 210.53 374 210.69 367.96 209.8 359 206.74 342.48 205.24 334.85 204.01 327.36 204.54 313.33 206.72 306.7 208.89 302.2 211.84 297.83 215.54 293.6 219.76 289.17 224.7 284.84 230.29 280.58 236.34 276.1 242.95 271.66 250.03 267.26 257.45 262.61 265.23 257.98 273.27 253.36 281.53 248.49 289.96 243.63 298.48 238.8 307.11 233.73 315.78 228.71 324.42 223.74 333.1 218.61 341.73 213.58 350.26 208.7 358.81 203.73 367.25 198.97 375.56 194.47 383.88 190 392.07 185.87 400.1 182.15 408.14 178.57 416.01 175.48 423.68 172.95" stroke-dasharray="124 84" transform="rotate(48.36363636363637, 400, 400)" opacity="0.70"></path><path d="M410.33 186.19C417.27 183.98 423.75 182.39 429.76 181.42 438.49 180.75 453.3 183.07 459.3 185.98 464.64 189.95 472.53 200.97 475.22 207.84 476.91 212.8 478.26 218.14 479.35 223.81 480.68 229.65 481.94 235.78 483.25 242.15 485.08 248.63 487.21 255.31 489.79 262.15 493.18 269.05 497.25 276.07 502.12 283.2 508.01 290.34 514.83 297.56 522.62 304.84 531.4 312.1 541.07 319.41 551.5 326.74 562.57 334.06 574.06 341.39 585.69 348.73 597.25 356.06 608.38 363.4 618.71 370.73 628.07 378.05 636 385.39 642.16 392.71 646.58 400.02 648.8 407.34 648.66 414.64 646.5 421.93 642 429.21 635.27 436.45 626.98 443.69 617.24 450.7 606.49 457.48 595.33 464.24 584 470.75 572.9 476.97 562.51 483.16 552.99 489.04 544.59 494.58 534.81 502.61 524.44 516.57 523.48 522.37 534.81 534.06 510.26 530.19 500.52 530.47 493.79 531.41 486.82 532.74 479.69 534.51 472.51 537 465.22 539.96 457.89 543.37 450.56 547.47 443.19 551.98 435.84 556.84 428.48 562.25 421.3 567.74 414.3 573.19 407.27 578.93 400.39 584.43 393.64 589.61 386.84 594.8 380.12 599.48 373.46 603.58 366.71 607.47 359.97 610.64 353.22 613.07 346.33 615.12 339.39 616.35 332.37 616.76 325.2 616.72 317.92 615.86 310.56 614.2 303.04 612.08 295.44 609.21 287.79 605.64 280.06 601.68 272.32 597.08 264.65 591.92 257.03 586.44 249.57 580.49 242.37 574.14 235.39 567.56 228.81 560.66 222.71 553.5 217.04 546.21 211.99 538.73 207.66 531.13 203.89 523.45 200.93 515.7 198.82 507.94 197.32 500.14 196.67 492.36 196.86 484.63 197.54 476.9 198.95 469.25 201.03 461.7 203.31 454.16 206.04 446.72 209.11 439.43 212 432.15 214.97 424.99 217.91 418 220.29 411 222.39 404.31 224.14 397.92 225.19 391.52 225.86 385.41 226.19 379.58 225.59 370.92 222.91 354.81 221.39 347.3 219.89 339.88 219.07 325.83 220.18 319.12 222.44 312.32 230.99 299 237.21 292.39 241.99 287.81 247.34 283.26 253.18 278.75 259.37 274.03 265.97 269.33 272.9 264.65 280.08 259.76 287.51 254.89 295.1 250.06 302.86 245.04 310.72 240.08 318.61 235.21 326.59 230.19 334.57 225.3 342.47 220.57 350.43 215.77 358.29 211.19 366.02 206.87 373.77 202.58 381.37 198.63 388.77 195.05 396.19 191.63 403.39 188.65 410.32 186.19" stroke-dasharray="48 89" transform="rotate(54.409090909090914, 400, 400)" opacity="0.29"></path><path d="M395.25 199.42C404.35 196.48 420.35 193.86 427.2 194.2 433.56 195.54 444.01 201.37 448.2 205.77 452.1 211.02 458.75 223.94 461.88 231.45 467.03 242.17 472.94 253.97 480.49 266.52 490.89 279.36 504.06 292.74 520.17 306.38 529.31 313.23 539.04 320.13 549.22 327.05 559.73 333.98 570.36 340.93 580.89 347.87 591.14 354.82 600.81 361.76 609.61 368.69 617.45 375.61 623.94 382.52 628.82 389.39 632.18 396.27 633.63 403.11 633.05 409.89 630.79 416.68 626.53 423.4 620.36 430.05 612.89 436.69 604.14 443.08 594.48 449.21 584.41 455.32 574.06 461.15 563.8 466.68 554 472.19 544.81 477.36 536.42 482.2 529.12 486.98 522.88 491.4 517.76 495.43 516.62 516.96 500.32 516.61 492.65 517.55 487.27 518.82 481.54 520.42 475.51 522.37 469.43 524.92 463.11 527.84 456.59 531.12 450.06 534.98 443.36 539.16 436.52 543.61 429.68 548.52 422.86 553.46 416.08 558.36 409.3 563.51 402.54 568.46 395.79 573.13 389.02 577.83 382.24 582.11 375.44 585.9 368.59 589.55 361.69 592.6 354.74 595.02 347.71 597.16 340.6 598.61 333.43 599.36 326.17 599.76 318.85 599.45 311.47 598.44 296.6 595.31 281.73 589.56 267.3 581.58 253.45 572.49 240.79 561.66 230.02 549.57 225.27 543.31 221.15 536.82 217.72 530.17 214.82 523.43 212.67 516.57 211.3 509.63 210.45 502.65 210.35 495.63 211.01 488.61 212.05 481.58 213.72 474.56 215.96 467.6 218.34 460.64 221.1 453.74 224.14 446.94 227 440.13 229.92 433.42 232.81 426.82 235.19 420.21 237.32 413.86 239.13 407.77 240.72 398.74 241.38 381.83 240.7 373.9 239.26 366.11 236.27 351.34 235.21 344.31 234.64 339.58 234.51 334.97 234.85 330.48 236.26 321.13 240.04 312.09 246.08 303.31 253.55 293.87 263.09 284.52 274.18 275.32 280.13 270.46 286.37 265.64 292.82 260.87 299.47 255.95 306.27 251.11 313.16 246.36 320.18 241.51 327.24 236.79 334.27 232.24 341.39 227.65 348.44 223.28 355.39 219.15 362.37 215.08 369.22 211.32 375.88 207.92 382.56 204.65 389.03 201.8 395.24 199.43" stroke-dasharray="1 13" transform="rotate(60.45454545454545, 400, 400)" opacity="0.41"></path><path d="M380.96 212.66C392.02 208.73 401.68 206.91 409.92 207.13 418.15 208.37 425.12 211.63 431.05 216.7 437.38 222.69 443.27 230.3 449.26 239.21 456.61 248.77 465.05 259.39 475.17 270.76 487.59 282.48 502.24 294.76 518.97 307.34 537.36 320.06 556.63 332.97 575.39 345.88 592.57 358.85 606.38 371.78 615.07 384.49 618.6 397.24 615.42 409.76 605.45 421.84 591.17 433.92 573.45 444.93 554.6 454.75 536.9 464.48 521.32 472.9 508.92 479.9 498.96 498.98 497.68 502.22 489.94 502.35 483.48 504.12 475.11 506.72 465.16 510.34 454.99 515.97 443.56 522.72 431.09 530.37 418.61 539.57 405.76 548.54 392.68 556.77 379.56 565.21 366.11 572.04 352.41 576.89 338.62 580.96 324.56 582.63 310.44 581.91 296.47 580.05 282.76 575.88 269.77 569.67 257.63 562.52 246.86 553.69 238.06 543.57 230.92 532.92 226.27 521.35 224.42 509.23 224.27 496.91 226.6 484.29 231.13 471.64 235.97 458.98 241.72 446.38 247.72 434.03 251.9 421.67 255.06 410.11 257.03 399.33 256.75 388.47 255.77 378.27 254.53 368.69 252.28 358.89 250.84 349.53 250.65 340.59 250.89 331.25 253.05 322.14 257.14 313.25 262.31 303.83 269.38 294.51 278.01 285.37 287.57 275.72 298.29 266.27 309.68 257.21 321.6 247.88 333.79 239.16 345.83 231.34 358.07 223.73 369.89 217.39 380.95 212.67" stroke-dasharray="54 85" transform="rotate(66.5, 400, 400)" opacity="0.47"></path><path d="M369.85 225.9C379.71 222.12 388.63 220.23 396.63 220.16 404.71 220.97 412.09 223.59 419 227.84 426.4 232.9 433.89 239.43 441.88 247.19 451.08 255.55 461.46 264.93 473.33 275.05 486.85 285.54 501.99 296.6 518.4 307.99 535.59 319.55 552.87 331.34 569.03 343.13 583.36 355.01 594.43 366.84 600.92 378.44 603.1 390.08 599.65 401.44 590.55 412.32 577.9 423.2 562.2 433.03 545.27 441.71 528.92 450.32 513.87 457.71 501.09 463.82 482.79 477.21 478.52 486.02 477.76 486.38 475.48 487.64 461.47 493.06 449.9 498.43 441.48 503.89 431.62 510.2 420.46 517.13 409.3 525.34 397.47 533.28 385.18 540.53 372.93 548.05 360.22 554.22 347.26 558.75 334.39 562.75 321.34 564.75 308.44 564.74 295.91 563.87 283.86 560.99 272.75 556.29 262.59 550.83 253.89 543.8 247.11 535.49 241.83 526.71 238.81 516.95 238.23 506.51 238.99 495.87 241.85 484.77 246.53 473.45 251.32 462.1 256.86 450.62 262.62 439.2 266.77 427.77 270.04 416.9 272.3 406.62 272.55 396.28 272.1 386.42 271.31 377.04 269.39 367.47 267.97 358.23 267.41 349.32 266.9 340.08 267.88 331.02 270.43 322.16 273.68 312.89 278.61 303.74 284.99 294.8 292.09 285.49 300.4 276.41 309.53 267.76 319.11 258.95 329.18 250.75 339.39 243.42 349.75 236.32 360 230.38 369.85 225.9" stroke-dasharray="86 31" transform="rotate(72.54545454545455, 400, 400)" opacity="0.43"></path><path d="M363.78 239.14C372.6 235.54 380.99 233.61 388.97 233.29 397.06 233.71 404.96 235.74 412.87 239.21 421.24 243.37 430.05 248.87 439.54 255.49 449.96 262.64 461.48 270.75 474.15 279.59 487.85 288.77 502.57 298.53 517.87 308.63 533.28 318.93 548.21 329.46 561.66 340.03 573.26 350.7 581.82 361.33 586.4 371.73 587.47 382.18 583.88 392.36 575.64 402.06 564.54 411.77 550.79 420.48 535.77 428.16 520.94 435.78 506.77 442.32 494.09 447.74 483.63 453.1 475.21 457.37 468.75 460.57 460.68 467.46 453.43 473.82 448.25 476.39 444.26 479.29 438.77 482.67 431.79 486.6 424.71 491.84 416.23 497.66 406.41 503.89 396.6 511.16 386.01 518.1 374.9 524.43 363.87 531.04 352.4 536.51 340.73 540.64 329.27 544.44 317.78 546.59 306.6 547.05 295.93 546.9 285.89 545.04 276.89 541.58 268.84 537.54 262.23 532.06 257.42 525.38 253.86 518.29 252.27 510.21 252.77 501.37 254.25 492.35 257.46 482.75 262.15 472.77 266.79 462.75 272.06 452.45 277.53 442.01 281.58 431.57 284.94 421.48 287.45 411.78 288.2 402.04 288.32 392.62 288.06 383.54 286.66 374.32 285.5 365.32 284.91 356.56 284.07 347.57 284.32 338.71 285.8 330.04 287.63 321.07 290.86 312.23 295.38 303.62 300.38 294.77 306.55 286.18 313.62 278.04 321.03 269.82 329.1 262.2 337.58 255.41 346.17 248.84 354.97 243.34 363.78 239.14" stroke-dasharray="57 61" transform="rotate(78.5909090909091, 400, 400)" opacity="0.87"></path><path d="M363.77 252.38C371.7 248.99 379.66 247.06 387.63 246.53 395.72 246.62 404.02 248.09 412.61 250.84 421.59 254.16 431.17 258.67 441.44 264.18 452.33 270.16 464.1 277.01 476.62 284.54 489.66 292.4 503.19 300.81 516.75 309.57 529.99 318.52 542.4 327.73 553.18 337 562.23 346.38 568.57 355.74 571.53 364.92 571.71 374.14 568.11 383.12 560.74 391.68 551.1 400.24 539.21 407.93 526.08 414.72 512.88 421.47 499.86 427.3 487.73 432.2 477.09 437.09 467.87 441.09 460.15 444.24 451.8 448.74 441.38 455.03 437.3 457.5 433.52 460.77 421.88 469.17 413.3 474.87 407.15 479.8 399.81 485.12 391.29 490.66 382.78 497.02 373.58 503.03 363.92 508.47 354.36 514.19 344.47 518.96 334.51 522.62 324.81 526.1 315.24 528.24 306.11 528.99 297.49 529.32 289.62 528.22 282.8 525.75 276.82 522.85 272.19 518.68 269.15 513.39 267.09 507.79 266.7 501.22 268.02 493.86 270.02 486.34 273.41 478.17 277.97 469.52 282.39 460.82 287.32 451.71 292.43 442.3 296.35 432.9 299.73 423.66 302.44 414.64 303.65 405.6 304.34 396.73 304.65 388.09 303.87 379.34 303.18 370.73 302.82 362.3 302.02 353.7 301.99 345.21 302.87 336.89 303.82 328.37 305.88 319.99 309.03 311.87 312.43 303.59 316.9 295.6 322.29 288.05 327.88 280.51 334.25 273.52 341.24 267.31 348.29 261.32 355.84 256.27 363.77 252.38" stroke-dasharray="140 131" transform="rotate(84.63636363636364, 400, 400)" opacity="0.42"></path><path d="M369.81 265.61C376.97 262.47 384.49 260.58 392.3 259.89 400.21 259.69 408.57 260.68 417.37 262.77 426.43 265.32 436.1 268.9 446.34 273.36 456.92 278.21 468.1 283.85 479.66 290.11 491.34 296.65 503.12 303.71 514.54 311.12 525.4 318.71 535.26 326.56 543.52 334.51 550.26 342.55 554.69 350.62 556.34 358.56 555.84 366.54 552.33 374.34 545.82 381.8 537.57 389.27 527.43 396.01 516.16 402 504.65 407.99 493.01 413.22 481.8 417.71 471.5 422.23 462.1 426.05 453.75 429.22 443.58 433.88 428.67 441.28 422.7 444.53 417.4 448.45 404.9 457.62 396.94 463.21 391.38 467.78 384.94 472.56 377.63 477.42 370.32 482.91 362.53 488.04 354.47 492.65 346.49 497.51 338.37 501.58 330.32 504.74 322.52 507.83 315 509.83 308.01 510.7 298.59 511.01 285.41 505.42 282.42 499.74 281.58 495.39 282.1 490.14 283.99 484.11 286.28 477.96 289.68 471.12 294 463.73 298.09 456.3 302.62 448.38 307.34 440.06 311.06 431.73 314.4 423.41 317.25 415.18 318.86 406.94 320.06 398.75 320.94 390.69 320.84 382.56 320.73 374.5 320.81 366.56 320.35 358.52 320.41 350.57 321.11 342.77 321.68 334.86 323.1 327.09 325.4 319.57 327.76 311.99 331.04 304.7 335.21 297.84 339.44 291.02 344.5 284.72 350.31 279.12 356.13 273.74 362.64 269.17 369.81 265.61" stroke-dasharray="74 32" transform="rotate(90.68181818181817, 400, 400)" opacity="0.56"></path><path d="M380.9 278.85C387.35 275.98 394.31 274.17 401.7 273.37 409.17 272.94 417.15 273.52 425.58 275.02 434.15 276.88 443.22 279.62 452.68 283.11 462.26 286.91 472.16 291.4 482.14 296.45 492 301.72 501.66 307.47 510.75 313.57 519.22 319.81 526.66 326.32 532.64 332.96 537.39 339.68 540.22 346.47 540.84 353.19 539.87 359.94 536.57 366.59 530.92 373.01 523.97 379.43 515.48 385.29 506 390.57 496.21 395.85 486.09 400.56 476.09 404.7 466.58 408.89 457.54 412.56 449.17 415.75 441.61 419.06 434.72 421.99 428.45 424.58 420.33 428.74 406.18 436.85 399.32 441.15 394.88 444.55 390.08 448.05 384.85 451.62 379.65 455.76 373.94 459.98 367.7 464.18 361.47 468.85 355.03 473.15 348.55 476.98 342.13 481.02 335.76 484.41 329.62 487.05 306.05 490.39 297.85 479.33 300.61 472.39 303 467.44 306.24 461.82 310.2 455.62 313.9 449.39 317.97 442.63 322.24 435.41 325.72 428.18 328.95 420.85 331.84 413.51 333.77 406.16 335.4 398.78 336.79 391.44 337.35 384.08 337.87 376.72 338.49 369.46 338.57 362.14 338.98 354.88 339.84 347.77 340.44 340.6 341.67 333.58 343.59 326.81 345.43 320.02 348.03 313.51 351.42 307.41 354.78 301.37 358.93 295.81 363.86 290.86 368.77 286.1 374.44 282.05 380.9 278.85" stroke-dasharray="38 24" transform="rotate(96.72727272727273, 400, 400)" opacity="0.70"></path><path d="M395.17 292.09C406.64 287.23 420.24 285.88 435.22 287.63 450.39 290.43 466.83 296.04 483.05 303.71 498.35 312.08 511.63 322.05 520.55 332.75 525.76 343.7 524.54 354.99 516.01 365.84 503.8 376.68 487.64 385.95 470.39 393.54 453.97 401.28 438.56 407.74 425.06 413.06 413.45 419.17 402.89 424.88 392.93 430.28 383.62 437.17 373.73 444.23 363.17 450.94 352.61 459.02 342.4 465.4 333.39 469.59 321.67 474.61 313 469.23 317.81 459.06 322.35 451.14 329.08 440.86 337.15 428.63 342.78 416.4 347.84 403.48 352.07 390.56 353.71 377.61 355.56 364.54 358.28 352.01 359.87 339.43 363.46 327.42 369.45 316.8 375.19 306.49 383.71 297.93 395.17 292.09" stroke-dasharray="8 48" transform="rotate(102.77272727272727, 400, 400)" opacity="0.90"></path><path d="M410.26 305.33C420.16 301.07 431.72 299.6 444.15 300.61 456.53 302.33 469.42 306.32 481.55 312.04 492.7 318.24 501.8 325.84 507.28 334.2 510.18 342.74 508.3 351.77 501.11 360.71 491.41 369.65 478.57 377.61 464.51 384.46 450.61 391.44 436.88 397.62 424.27 402.99 412.7 408.93 401.97 414.56 392.16 419.79 382.8 426.01 373.64 432.13 364.8 437.7 355.96 444.2 348.23 449.19 342.03 452.39 332.34 454.38 342.34 434.28 352.05 420.14 357.16 410.1 362.13 399.29 366.67 388.33 369.34 377.4 372.22 366.29 375.67 355.64 378.11 345.03 381.95 334.94 387.55 326.05 392.85 317.45 400.35 310.29 410.26 305.33" stroke-dasharray="91 20" transform="rotate(108.81818181818183, 400, 400)" opacity="0.93"></path><path d="M423.63 318.56C431.8 314.99 440.93 313.54 450.34 313.97 459.62 314.85 468.83 317.49 477.02 321.51 484.44 325.82 490.05 331.32 492.9 337.56 494.13 343.91 492.02 350.84 486.2 357.95 478.83 365.06 469.1 371.67 458.25 377.62 447.25 383.68 435.95 389.28 425.19 394.33 414.88 399.75 405.1 404.9 396.22 409.63 387.59 414.96 379.52 420.03 372.31 424.47 352.65 435.09 359.08 421.49 366.96 410.43 371.38 402.54 375.98 393.93 380.49 385.12 383.76 376.35 387.31 367.42 391.25 358.84 394.45 350.35 398.59 342.28 403.87 335.19 408.9 328.34 415.45 322.61 423.63 318.56" stroke-dasharray="110 40" transform="rotate(114.86363636363636, 400, 400)" opacity="0.12"></path><path d="M433.05 331.8C445.57 326.48 459 327.13 469.15 332.19 477.36 337.86 479.1 347.04 471.3 357.71 460.12 368.36 443.4 378.53 426.85 386.99 410.74 396.27 395.61 404.98 384.45 411.23 370.5 420.29 370.27 415.12 381.86 400.1 388.22 388.5 396.1 374.64 404.44 361.81 411.04 349.29 420.51 338.21 433.05 331.8" stroke-dasharray="55 124" transform="rotate(120.9090909090909, 400, 400)" opacity="0.50"></path><path d="M436.94 345.04C449.19 341.24 461.88 350.04 456.39 360 449.46 367.14 438.99 374.48 428.23 380.86 417.42 387.57 406.9 393.77 399.19 397.99 389.62 403.61 389.19 399.62 396.77 389.76 401.54 382.18 407.95 373.13 414.8 364.76 420.91 356.58 428.51 349.33 436.94 345.04" stroke-dasharray="113 53" transform="rotate(126.95454545454545, 400, 400)" opacity="0.67"></path></g></svg>