<svg xmlns="http://www.w3.org/2000/svg" version="1.1" xmlns:xlink="http://www.w3.org/1999/xlink" xmlns:svgjs="http://svgjs.dev/svgjs" viewBox="0 0 800 400"><path d="M29.147981643676758,347.085205078125C47.234679222106934,315.69507090250653,119.7309471766154,163.37818400065103,137.6681671142578,158.74440002441406C155.60538705190024,154.1106160481771,126.75635528564453,309.2675552368164,136.77130126953125,319.2825012207031C146.78624725341797,329.29744720458984,184.45440419514975,217.78773498535156,197.75784301757812,218.83407592773438C211.0612818400065,219.8804168701172,196.41256205240884,331.09118906656903,216.59193420410156,325.560546875C236.77130635579428,320.02990468343097,301.3452885945638,185.05231730143228,318.8340759277344,185.6502227783203C336.32286326090497,186.24812825520834,309.4170328776042,317.93721771240234,321.524658203125,329.1479797363281C333.6322835286458,340.3587417602539,377.57848103841144,252.76531982421875,391.4798278808594,252.914794921875C405.3811747233073,253.06427001953125,387.44394938151044,331.5395991007487,404.9327392578125,330.0448303222656C422.42152913411456,328.55006154378253,481.4648844401042,247.08519490559897,496.4125671386719,243.94618225097656C511.36024983723956,240.80716959635416,484.0059865315755,309.8654607137044,494.61883544921875,311.21075439453125C505.231684366862,312.5560480753581,544.9925028483073,251.12108357747397,560.0896606445312,252.0179443359375C575.1868184407552,252.91480509440103,568.7593282063802,313.6023813883464,585.2017822265625,316.5919189453125C601.6442362467448,319.5814565022786,633.3333231608073,266.0687713623047,658.744384765625,269.9551696777344C684.1554463704427,273.84156799316406,724.5141906738281,328.25111897786456,737.6681518554688,339.9103088378906" fill="none" stroke-width="6" stroke="url(&quot;#SvgjsLinearGradient1002&quot;)" stroke-linecap="round" transform="matrix(0.95,0,0,0.9500000000000001,35.762350177764915,-40.22074050903322)"></path><defs><linearGradient id="SvgjsLinearGradient1002" gradientTransform="rotate(127, 0.5, 0.5)"><stop stop-color="hsl(170, 30%, 10%)" offset="0"></stop><stop stop-color="hsl(190, 65%, 50%)" offset="1"></stop></linearGradient></defs></svg>