 <svg version="1.0" xmlns="http://www.w3.org/2000/svg" width="700.000000pt" height="700.000000pt" viewBox="0 0 700.000000 700.000000" preserveAspectRatio="xMidYMid meet">
<metadata>
Created by potrace 1.12, written by Peter Selinger 2001-2015
</metadata>
<g transform="translate(0.000000,700.000000) scale(0.100000,-0.100000)" fill="#000000" stroke="none">
<path d="M1430 4349 c-112 -11 -240 -49 -348 -103 -311 -156 -522 -469 -549
-813 l-6 -83 200 0 200 0 11 79 c21 145 81 260 188 360 74 70 197 134 289 151
41 7 231 10 590 8 l530 -3 5 -380 c6 -377 6 -381 33 -468 92 -299 312 -540
590 -647 136 -53 198 -64 362 -64 130 1 163 4 248 27 238 64 445 213 577 415
l52 80 58 -86 c125 -187 313 -328 525 -395 78 -24 205 -47 266 -47 l29 0 0
200 0 200 -43 0 c-111 0 -256 63 -355 156 -74 68 -121 139 -161 242 l-26 67 0
355 0 355 788 3 787 2 0 200 0 200 -1074 0 -1075 0 -3 -542 c-4 -595 -4 -591
-67 -716 -66 -130 -195 -243 -332 -292 -88 -30 -240 -38 -333 -16 -85 20 -185
72 -253 131 -70 61 -144 174 -174 266 -24 73 -24 80 -24 419 l0 345 308 3 307
2 0 200 0 200 -1017 -1 c-560 -1 -1056 -5 -1103 -10z"></path>
<path d="M5067 3663 c-13 -13 -7 -249 7 -297 31 -103 116 -166 225 -166 128 0
221 87 229 215 5 82 -11 128 -63 181 -59 59 -115 74 -270 74 -67 0 -125 -3
-128 -7z"></path>
</g>
</svg>