<svg xmlns="http://www.w3.org/2000/svg" version="1.1" xmlns:xlink="http://www.w3.org/1999/xlink" xmlns:svgjs="http://svgjs.dev/svgjs" viewBox="0 0 800 800" opacity="1"><g fill="none" stroke-width="1" stroke="hsl(8, 71%, 74%)" stroke-linecap="round" stroke-dasharray="56 0" transform="matrix(1.1,0,0,1.1,-40.000000762939464,-39.99999847412113)"><line x1="115" y1="400" x2="685" y2="400" transform="rotate(0, 400, 400)" opacity="0.51"></line><line x1="658" y1="400" x2="142" y2="400" transform="rotate(3, 400, 400)" opacity="0.26"></line><line x1="232" y1="400" x2="568" y2="400" transform="rotate(6, 400, 400)" opacity="0.98"></line><line x1="296.5" y1="400" x2="503.5" y2="400" transform="rotate(9, 400, 400)" opacity="0.71"></line><line x1="33.5" y1="400" x2="766.5" y2="400" transform="rotate(12, 400, 400)" opacity="0.74"></line><line x1="405" y1="400" x2="395" y2="400" transform="rotate(15, 400, 400)" opacity="0.56"></line><line x1="340" y1="400" x2="460" y2="400" transform="rotate(18, 400, 400)" opacity="0.61"></line><line x1="407" y1="400" x2="393" y2="400" transform="rotate(21, 400, 400)" opacity="0.63"></line><line x1="213" y1="400" x2="587" y2="400" transform="rotate(24, 400, 400)" opacity="0.78"></line><line x1="336.5" y1="400" x2="463.5" y2="400" transform="rotate(27, 400, 400)" opacity="0.47"></line><line x1="475" y1="400" x2="325" y2="400" transform="rotate(30, 400, 400)" opacity="0.51"></line><line x1="170.5" y1="400" x2="629.5" y2="400" transform="rotate(33, 400, 400)" opacity="0.29"></line><line x1="659" y1="400" x2="141" y2="400" transform="rotate(36, 400, 400)" opacity="0.95"></line><line x1="683.5" y1="400" x2="116.5" y2="400" transform="rotate(39, 400, 400)" opacity="0.46"></line><line x1="660" y1="400" x2="140" y2="400" transform="rotate(42, 400, 400)" opacity="0.97"></line><line x1="386.5" y1="400" x2="413.5" y2="400" transform="rotate(45, 400, 400)" opacity="0.24"></line><line x1="264" y1="400" x2="536" y2="400" transform="rotate(48, 400, 400)" opacity="0.43"></line><line x1="334.5" y1="400" x2="465.5" y2="400" transform="rotate(51, 400, 400)" opacity="0.85"></line><line x1="242" y1="400" x2="558" y2="400" transform="rotate(54, 400, 400)" opacity="0.81"></line><line x1="591.5" y1="400" x2="208.5" y2="400" transform="rotate(57, 400, 400)" opacity="0.60"></line><line x1="419.5" y1="400" x2="380.5" y2="400" transform="rotate(60, 400, 400)" opacity="0.22"></line><line x1="189.5" y1="400" x2="610.5" y2="400" transform="rotate(63, 400, 400)" opacity="0.58"></line><line x1="517" y1="400" x2="283" y2="400" transform="rotate(66, 400, 400)" opacity="0.79"></line><line x1="680.5" y1="400" x2="119.5" y2="400" transform="rotate(69, 400, 400)" opacity="0.91"></line><line x1="387" y1="400" x2="413" y2="400" transform="rotate(72, 400, 400)" opacity="0.71"></line><line x1="484" y1="400" x2="316" y2="400" transform="rotate(75, 400, 400)" opacity="0.32"></line><line x1="505.5" y1="400" x2="294.5" y2="400" transform="rotate(78, 400, 400)" opacity="0.46"></line><line x1="448" y1="400" x2="352" y2="400" transform="rotate(81, 400, 400)" opacity="0.13"></line><line x1="420" y1="400" x2="380" y2="400" transform="rotate(84, 400, 400)" opacity="0.99"></line><line x1="649" y1="400" x2="151" y2="400" transform="rotate(87, 400, 400)" opacity="0.22"></line><line x1="124.5" y1="400" x2="675.5" y2="400" transform="rotate(90, 400, 400)" opacity="0.10"></line><line x1="608" y1="400" x2="192" y2="400" transform="rotate(93, 400, 400)" opacity="0.62"></line><line x1="435" y1="400" x2="365" y2="400" transform="rotate(96, 400, 400)" opacity="0.70"></line><line x1="425.5" y1="400" x2="374.5" y2="400" transform="rotate(99, 400, 400)" opacity="0.50"></line><line x1="529" y1="400" x2="271" y2="400" transform="rotate(102, 400, 400)" opacity="0.85"></line><line x1="300.5" y1="400" x2="499.5" y2="400" transform="rotate(105, 400, 400)" opacity="0.39"></line><line x1="310" y1="400" x2="490" y2="400" transform="rotate(108, 400, 400)" opacity="0.64"></line><line x1="527" y1="400" x2="273" y2="400" transform="rotate(111, 400, 400)" opacity="0.38"></line><line x1="492" y1="400" x2="308" y2="400" transform="rotate(114, 400, 400)" opacity="0.94"></line><line x1="383" y1="400" x2="417" y2="400" transform="rotate(117, 400, 400)" opacity="0.60"></line><line x1="477.5" y1="400" x2="322.5" y2="400" transform="rotate(120, 400, 400)" opacity="0.42"></line><line x1="359.5" y1="400" x2="440.5" y2="400" transform="rotate(123, 400, 400)" opacity="0.31"></line><line x1="106.5" y1="400" x2="693.5" y2="400" transform="rotate(126, 400, 400)" opacity="0.29"></line><line x1="148.5" y1="400" x2="651.5" y2="400" transform="rotate(129, 400, 400)" opacity="0.72"></line><line x1="451" y1="400" x2="349" y2="400" transform="rotate(132, 400, 400)" opacity="0.15"></line><line x1="615" y1="400" x2="185" y2="400" transform="rotate(135, 400, 400)" opacity="0.62"></line><line x1="583" y1="400" x2="217" y2="400" transform="rotate(138, 400, 400)" opacity="0.72"></line><line x1="430" y1="400" x2="370" y2="400" transform="rotate(141, 400, 400)" opacity="0.21"></line><line x1="639" y1="400" x2="161" y2="400" transform="rotate(144, 400, 400)" opacity="0.09"></line><line x1="517.5" y1="400" x2="282.5" y2="400" transform="rotate(147, 400, 400)" opacity="0.51"></line><line x1="299.5" y1="400" x2="500.5" y2="400" transform="rotate(150, 400, 400)" opacity="0.46"></line><line x1="562" y1="400" x2="238" y2="400" transform="rotate(153, 400, 400)" opacity="0.18"></line><line x1="327.5" y1="400" x2="472.5" y2="400" transform="rotate(156, 400, 400)" opacity="0.33"></line><line x1="241" y1="400" x2="559" y2="400" transform="rotate(159, 400, 400)" opacity="0.73"></line><line x1="331" y1="400" x2="469" y2="400" transform="rotate(162, 400, 400)" opacity="0.52"></line><line x1="573" y1="400" x2="227" y2="400" transform="rotate(165, 400, 400)" opacity="0.25"></line><line x1="26.5" y1="400" x2="773.5" y2="400" transform="rotate(168, 400, 400)" opacity="0.44"></line><line x1="562" y1="400" x2="238" y2="400" transform="rotate(171, 400, 400)" opacity="0.33"></line><line x1="41.5" y1="400" x2="758.5" y2="400" transform="rotate(174, 400, 400)" opacity="0.82"></line><line x1="366" y1="400" x2="434" y2="400" transform="rotate(177, 400, 400)" opacity="0.80"></line><line x1="121" y1="400" x2="679" y2="400" transform="rotate(180, 400, 400)" opacity="0.65"></line><line x1="559.5" y1="400" x2="240.5" y2="400" transform="rotate(183, 400, 400)" opacity="0.95"></line><line x1="404" y1="400" x2="396" y2="400" transform="rotate(186, 400, 400)" opacity="0.79"></line><line x1="60.5" y1="400" x2="739.5" y2="400" transform="rotate(189, 400, 400)" opacity="0.40"></line><line x1="312" y1="400" x2="488" y2="400" transform="rotate(192, 400, 400)" opacity="0.46"></line><line x1="72" y1="400" x2="728" y2="400" transform="rotate(195, 400, 400)" opacity="0.62"></line><line x1="501.5" y1="400" x2="298.5" y2="400" transform="rotate(198, 400, 400)" opacity="0.66"></line><line x1="269.5" y1="400" x2="530.5" y2="400" transform="rotate(201, 400, 400)" opacity="0.51"></line><line x1="23.5" y1="400" x2="776.5" y2="400" transform="rotate(204, 400, 400)" opacity="0.51"></line><line x1="641" y1="400" x2="159" y2="400" transform="rotate(207, 400, 400)" opacity="0.29"></line><line x1="589" y1="400" x2="211" y2="400" transform="rotate(210, 400, 400)" opacity="0.89"></line><line x1="484" y1="400" x2="316" y2="400" transform="rotate(213, 400, 400)" opacity="0.79"></line><line x1="326.5" y1="400" x2="473.5" y2="400" transform="rotate(216, 400, 400)" opacity="0.68"></line><line x1="31.5" y1="400" x2="768.5" y2="400" transform="rotate(219, 400, 400)" opacity="0.65"></line><line x1="337.5" y1="400" x2="462.5" y2="400" transform="rotate(222, 400, 400)" opacity="0.75"></line><line x1="170" y1="400" x2="630" y2="400" transform="rotate(225, 400, 400)" opacity="0.34"></line><line x1="609" y1="400" x2="191" y2="400" transform="rotate(228, 400, 400)" opacity="0.98"></line><line x1="658.5" y1="400" x2="141.5" y2="400" transform="rotate(231, 400, 400)" opacity="0.35"></line><line x1="348.5" y1="400" x2="451.5" y2="400" transform="rotate(234, 400, 400)" opacity="0.82"></line><line x1="314.5" y1="400" x2="485.5" y2="400" transform="rotate(237, 400, 400)" opacity="0.88"></line><line x1="104.5" y1="400" x2="695.5" y2="400" transform="rotate(240, 400, 400)" opacity="1.00"></line><line x1="78.5" y1="400" x2="721.5" y2="400" transform="rotate(243, 400, 400)" opacity="0.65"></line><line x1="82.5" y1="400" x2="717.5" y2="400" transform="rotate(246, 400, 400)" opacity="0.35"></line><line x1="566.5" y1="400" x2="233.5" y2="400" transform="rotate(249, 400, 400)" opacity="0.57"></line><line x1="678" y1="400" x2="122" y2="400" transform="rotate(252, 400, 400)" opacity="0.30"></line><line x1="459" y1="400" x2="341" y2="400" transform="rotate(255, 400, 400)" opacity="0.80"></line><line x1="585" y1="400" x2="215" y2="400" transform="rotate(258, 400, 400)" opacity="0.51"></line><line x1="410.5" y1="400" x2="389.5" y2="400" transform="rotate(261, 400, 400)" opacity="0.95"></line><line x1="629" y1="400" x2="171" y2="400" transform="rotate(264, 400, 400)" opacity="0.83"></line><line x1="358" y1="400" x2="442" y2="400" transform="rotate(267, 400, 400)" opacity="0.34"></line><line x1="472" y1="400" x2="328" y2="400" transform="rotate(270, 400, 400)" opacity="0.07"></line><line x1="332" y1="400" x2="468" y2="400" transform="rotate(273, 400, 400)" opacity="0.18"></line><line x1="196.5" y1="400" x2="603.5" y2="400" transform="rotate(276, 400, 400)" opacity="0.81"></line><line x1="645.5" y1="400" x2="154.5" y2="400" transform="rotate(279, 400, 400)" opacity="0.22"></line><line x1="574" y1="400" x2="226" y2="400" transform="rotate(282, 400, 400)" opacity="0.65"></line><line x1="680" y1="400" x2="120" y2="400" transform="rotate(285, 400, 400)" opacity="0.57"></line><line x1="287.5" y1="400" x2="512.5" y2="400" transform="rotate(288, 400, 400)" opacity="0.51"></line><line x1="639.5" y1="400" x2="160.5" y2="400" transform="rotate(291, 400, 400)" opacity="0.51"></line><line x1="69.5" y1="400" x2="730.5" y2="400" transform="rotate(294, 400, 400)" opacity="0.73"></line><line x1="608" y1="400" x2="192" y2="400" transform="rotate(297, 400, 400)" opacity="0.20"></line><line x1="182.5" y1="400" x2="617.5" y2="400" transform="rotate(300, 400, 400)" opacity="0.63"></line><line x1="437" y1="400" x2="363" y2="400" transform="rotate(303, 400, 400)" opacity="0.09"></line><line x1="680" y1="400" x2="120" y2="400" transform="rotate(306, 400, 400)" opacity="0.53"></line><line x1="341" y1="400" x2="459" y2="400" transform="rotate(309, 400, 400)" opacity="0.66"></line><line x1="122.5" y1="400" x2="677.5" y2="400" transform="rotate(312, 400, 400)" opacity="0.52"></line><line x1="306" y1="400" x2="494" y2="400" transform="rotate(315, 400, 400)" opacity="0.64"></line><line x1="135.5" y1="400" x2="664.5" y2="400" transform="rotate(318, 400, 400)" opacity="0.80"></line><line x1="448" y1="400" x2="352" y2="400" transform="rotate(321, 400, 400)" opacity="0.81"></line><line x1="231" y1="400" x2="569" y2="400" transform="rotate(324, 400, 400)" opacity="0.48"></line><line x1="444" y1="400" x2="356" y2="400" transform="rotate(327, 400, 400)" opacity="0.91"></line><line x1="242.5" y1="400" x2="557.5" y2="400" transform="rotate(330, 400, 400)" opacity="0.55"></line><line x1="144" y1="400" x2="656" y2="400" transform="rotate(333, 400, 400)" opacity="0.87"></line><line x1="320" y1="400" x2="480" y2="400" transform="rotate(336, 400, 400)" opacity="0.63"></line><line x1="136" y1="400" x2="664" y2="400" transform="rotate(339, 400, 400)" opacity="0.79"></line><line x1="600" y1="400" x2="200" y2="400" transform="rotate(342, 400, 400)" opacity="0.36"></line><line x1="616.5" y1="400" x2="183.5" y2="400" transform="rotate(345, 400, 400)" opacity="0.89"></line><line x1="533.5" y1="400" x2="266.5" y2="400" transform="rotate(348, 400, 400)" opacity="0.68"></line><line x1="559" y1="400" x2="241" y2="400" transform="rotate(351, 400, 400)" opacity="0.09"></line><line x1="599.5" y1="400" x2="200.5" y2="400" transform="rotate(354, 400, 400)" opacity="0.53"></line><line x1="687" y1="400" x2="113" y2="400" transform="rotate(357, 400, 400)" opacity="0.79"></line><line x1="638" y1="400" x2="162" y2="400" transform="rotate(360, 400, 400)" opacity="0.52"></line><line x1="484" y1="400" x2="316" y2="400" transform="rotate(363, 400, 400)" opacity="0.86"></line><line x1="563" y1="400" x2="237" y2="400" transform="rotate(366, 400, 400)" opacity="0.76"></line><line x1="397.5" y1="400" x2="402.5" y2="400" transform="rotate(369, 400, 400)" opacity="0.19"></line><line x1="496.5" y1="400" x2="303.5" y2="400" transform="rotate(372, 400, 400)" opacity="0.64"></line><line x1="289.5" y1="400" x2="510.5" y2="400" transform="rotate(375, 400, 400)" opacity="0.09"></line><line x1="210.5" y1="400" x2="589.5" y2="400" transform="rotate(378, 400, 400)" opacity="0.35"></line><line x1="460.5" y1="400" x2="339.5" y2="400" transform="rotate(381, 400, 400)" opacity="0.65"></line><line x1="294.5" y1="400" x2="505.5" y2="400" transform="rotate(384, 400, 400)" opacity="0.57"></line><line x1="240" y1="400" x2="560" y2="400" transform="rotate(387, 400, 400)" opacity="0.32"></line><line x1="208" y1="400" x2="592" y2="400" transform="rotate(390, 400, 400)" opacity="0.91"></line><line x1="92" y1="400" x2="708" y2="400" transform="rotate(393, 400, 400)" opacity="0.44"></line><line x1="403.5" y1="400" x2="396.5" y2="400" transform="rotate(396, 400, 400)" opacity="0.99"></line><line x1="511.5" y1="400" x2="288.5" y2="400" transform="rotate(399, 400, 400)" opacity="0.99"></line><line x1="361" y1="400" x2="439" y2="400" transform="rotate(402, 400, 400)" opacity="0.90"></line><line x1="173" y1="400" x2="627" y2="400" transform="rotate(405, 400, 400)" opacity="0.17"></line><line x1="87" y1="400" x2="713" y2="400" transform="rotate(408, 400, 400)" opacity="0.25"></line><line x1="288" y1="400" x2="512" y2="400" transform="rotate(411, 400, 400)" opacity="0.19"></line><line x1="306.5" y1="400" x2="493.5" y2="400" transform="rotate(414, 400, 400)" opacity="0.74"></line><line x1="679" y1="400" x2="121" y2="400" transform="rotate(417, 400, 400)" opacity="0.96"></line><line x1="467" y1="400" x2="333" y2="400" transform="rotate(420, 400, 400)" opacity="0.71"></line></g></svg>