<svg xmlns="http://www.w3.org/2000/svg" version="1.1" xmlns:xlink="http://www.w3.org/1999/xlink" xmlns:svgjs="http://svgjs.dev/svgjs" viewBox="0 0 800 800" opacity="0.74"><defs><linearGradient x1="50%" y1="0%" x2="50%" y2="100%" id="wwwhirl-grad"><stop stop-color="hsl(170, 30%, 20%)" stop-opacity="1" offset="45%"></stop><stop stop-color="hsl(190, 50%, 40%)" stop-opacity="1" offset="100%"></stop></linearGradient></defs><g stroke-width="2" stroke="url(#wwwhirl-grad)" fill="none" stroke-linecap="round"><path d="M20.5 414.7814735717774C35.258333333333326 391.16814023844404 41.58333333333333 313.1598069051107 71.1 333.82147357177735C100.61666666666667 354.483140238444 92.18333333333334 501.85564023844404 121.69999999999999 485.62147357177736C151.21666666666667 469.3873069051107 142.78333333333333 270.78230690511066 172.3 278.1614735717774C201.81666666666666 285.540640238444 193.38333333333333 482.880640238444 222.9 510.92147357177737C252.41666666666663 538.9623069051107 243.98333333333335 399.68580690511067 273.5 374.30147357177736C303.01666666666665 348.917140238444 294.5833333333333 422.7088069051107 324.1 423.88947357177733C353.6166666666667 425.070140238444 345.18333333333334 362.1153069051107 374.7 378.34947357177737C404.21666666666664 394.583640238444 395.78333333333336 494.89814023844406 425.3 479.54947357177736C454.81666666666666 464.20080690511065 446.3833333333333 339.89347357177735 475.9 325.72547357177734C505.41666666666674 311.55747357177734 496.98333333333335 428.31697357177734 526.5 430.9734735717774C556.0166666666667 433.6299735717773 547.5833333333334 308.563640238444 577.1 334.83347357177735C606.6166666666667 361.1033069051107 598.1833333333333 506.57830690511065 627.7 521.0414735717774C657.2166666666667 535.504640238444 648.7833333333333 387.96347357177734 678.3 384.42147357177737C707.8166666666667 380.87947357177734 699.3833333333333 506.83130690511064 728.9 508.89747357177737C758.4166666666666 510.96364023844404 764.7416666666667 425.74480690511064 779.5 391.5054735717773 " transform="rotate(123.75, 400, 400)"></path><path d="M32 414.33361625162763C46.3111111111111 391.4358384738498 52.44444444444444 315.7913940294054 81.06666666666666 335.8269495849609C109.68888888888888 355.8625051405165 101.5111111111111 498.76917180718317 130.13333333333333 483.0269495849609C158.75555555555553 467.28472736273875 150.57777777777778 274.69806069607205 179.2 281.8536162516276C207.82222222222222 289.0091718071832 199.64444444444445 480.36917180718314 228.26666666666668 507.56028291829426C256.8888888888889 534.7513940294054 248.7111111111111 399.6953940294054 277.33333333333337 375.0802829182943C305.9555555555556 350.46517180718314 297.77777777777777 422.02072736273874 326.4 423.1656162516276C355.02222222222224 424.3105051405165 346.84444444444443 363.2633940294054 375.46666666666664 379.0056162516276C404.0888888888889 394.7478384738498 395.9111111111111 492.0225051405165 424.53333333333336 477.1389495849609C453.15555555555557 462.25539402940535 444.97777777777776 341.71494958496095 473.6 327.97628291829426C502.2222222222222 314.2376162516276 494.0444444444445 427.4589495849609 522.6666666666667 430.03494958496094C551.2888888888889 432.61094958496096 543.1111111111111 311.3345051405165 571.7333333333333 336.80828291829425C600.3555555555555 362.28206069607205 592.1777777777778 503.3487273627387 620.8 517.3736162516276C649.4222222222222 531.3985051405165 641.2444444444445 388.32828291829424 669.8666666666667 384.8936162516276C698.4888888888888 381.4589495849609 690.3111111111111 503.594060696072 718.9333333333333 505.59761625162764C747.5555555555555 507.60117180718316 753.6888888888889 424.9647273627387 768 391.76294958496095 " transform="rotate(120, 400, 400)"></path><path d="M43.5 413.88569789632163C57.36388888888888 391.7034756740994 63.30555555555554 318.42292011854386 91.03333333333333 337.8323645629883C118.7611111111111 357.2418090074327 110.83888888888889 495.68264234076605 138.56666666666666 480.43236456298825C166.29444444444442 465.1820867852105 158.37222222222223 278.6137534518772 186.1 285.5456978963216C213.82777777777778 292.47764234076607 205.90555555555557 477.857642340766 233.63333333333333 504.19903122965496C261.3611111111111 530.5404201185439 253.43888888888887 399.70492011854384 281.16666666666663 375.85903122965493C308.89444444444445 352.0131423407661 300.97222222222223 421.33258678521054 328.7 422.4416978963216C356.4277777777778 423.5508090074327 348.50555555555553 364.41142011854384 376.23333333333335 379.6616978963216C403.96111111111117 394.9119756740994 396.03888888888883 489.14680900743275 423.76666666666665 474.7283645629883C451.49444444444447 460.3099201185438 443.5722222222222 343.5363645629883 471.3 330.2270312296549C499.02777777777777 316.9176978963216 491.10555555555555 426.60086456298825 518.8333333333333 429.09636456298824C546.5611111111111 431.59186456298823 538.6388888888889 314.1053090074327 566.3666666666667 338.78303122965497C594.0944444444444 363.46075345187717 586.1722222222222 500.11908678521047 613.9 513.7056978963216C641.6277777777777 527.2923090074328 633.7055555555556 388.69303122965493 661.4333333333333 385.3656978963216C689.161111111111 382.03836456298825 681.2388888888889 500.3567534518771 708.9666666666667 502.2976978963216C736.6944444444445 504.2386423407661 742.6361111111111 424.1845867852105 756.5 392.0203645629883 " transform="rotate(116.25, 400, 400)"></path><path d="M55 413.437741394043C68.41666666666666 391.9710747273763 74.16666666666666 321.05440806070965 101 339.83774139404295C127.83333333333333 358.6210747273763 120.16666666666667 492.5960747273763 147 477.83774139404295C173.83333333333331 463.0794080607096 166.16666666666669 282.5294080607096 193 289.237741394043C219.83333333333334 295.9460747273763 212.16666666666666 475.3460747273763 239 500.83774139404295C265.83333333333337 526.3294080607097 258.16666666666663 399.7144080607096 285 376.63774139404296C311.8333333333333 353.5610747273763 304.16666666666663 420.6444080607097 331 421.71774139404295C357.8333333333333 422.7910747273763 350.1666666666667 365.55940806070964 377 380.31774139404297C403.8333333333333 395.0760747273763 396.1666666666667 486.27107472737634 423 472.31774139404297C449.8333333333333 458.3644080607096 442.1666666666667 345.357741394043 469 332.477741394043C495.8333333333333 319.59774139404294 488.1666666666667 425.7427413940429 515 428.157741394043C541.8333333333333 430.57274139404296 534.1666666666667 316.8760747273763 561 340.75774139404297C587.8333333333334 364.6394080607096 580.1666666666666 496.88940806070957 607 510.037741394043C633.8333333333334 523.1860747273763 626.1666666666666 389.057741394043 653 385.83774139404295C679.8333333333334 382.617741394043 672.1666666666666 497.1194080607096 699 498.997741394043C725.8333333333334 500.8760747273763 731.5833333333334 423.4044080607096 745 392.27774139404295 " transform="rotate(112.5, 400, 400)"></path><path d="M66.5 412.989823038737C79.46944444444443 392.23871192762584 85.02777777777777 323.6859341498481 110.96666666666667 341.8431563720703C136.90555555555554 360.00037859429256 129.49444444444444 489.50954526095916 155.43333333333334 475.2431563720703C181.3722222222222 460.97676748318145 173.9611111111111 286.44510081651475 199.9 292.92982303873697C225.83888888888887 299.4145452609592 218.42777777777778 472.8345452609592 244.36666666666667 497.47648970540365C270.30555555555554 522.1184341498481 262.8944444444444 399.7239341498481 288.83333333333337 377.41648970540365C314.77222222222224 355.1090452609592 307.3611111111111 419.9562674831814 333.3 420.993823038737C359.23888888888894 422.0313785942925 351.8277777777777 366.7074341498481 377.76666666666665 380.973823038737C403.7055555555556 395.24021192762586 396.2944444444444 483.39537859429254 422.23333333333335 469.9071563720703C448.1722222222223 456.41893414984804 440.76111111111106 347.17915637207034 466.7 334.72848970540366C492.63888888888886 322.277823038737 485.2277777777778 424.8846563720703 511.1666666666667 427.2191563720703C537.1055555555555 429.5536563720703 529.6944444444446 319.6468785942925 555.6333333333333 342.7324897054036C581.5722222222222 365.81810081651474 574.1611111111112 493.65976748318144 600.1 506.36982303873697C626.0388888888889 519.0798785942925 618.6277777777779 389.4224897054037 644.5666666666667 386.30982303873697C670.5055555555555 383.1971563720703 663.0944444444445 493.8821008165147 689.0333333333333 495.697823038737C714.9722222222222 497.5135452609592 720.5305555555555 422.62426748318137 733.5 392.53515637207033 " transform="rotate(108.75, 400, 400)"></path><path d="M78 412.54190468343097C90.52222222222221 392.5063491278754 95.88888888888889 326.31746023898654 120.93333333333334 343.84857135009764C145.97777777777776 361.37968246120874 138.82222222222222 486.4230157945421 163.86666666666667 472.64857135009765C188.9111111111111 458.87412690565327 181.75555555555556 290.3607935723199 206.8 296.621904683431C231.84444444444443 302.8830157945421 224.6888888888889 470.32301579454213 249.73333333333332 494.11523801676435C274.7777777777778 517.9074602389866 267.6222222222222 399.73346023898654 292.66666666666663 378.19523801676434C317.7111111111111 356.6570157945421 310.55555555555554 419.2681269056532 335.6 420.269904683431C360.64444444444445 421.2716824612088 353.4888888888889 367.85546023898655 378.53333333333336 381.629904683431C403.5777777777778 395.40434912787543 396.4222222222222 480.5196824612088 421.46666666666664 467.49657135009767C446.5111111111112 454.4734602389865 439.3555555555555 349.00057135009763 464.4 336.9792380167643C489.4444444444444 324.957904683431 482.2888888888889 424.02657135009764 507.3333333333333 426.28057135009766C532.3777777777777 428.5345713500977 525.2222222222222 322.41768246120876 550.2666666666667 344.70723801676434C575.3111111111111 366.9967935723199 568.1555555555556 490.4301269056532 593.2 502.701904683431C618.2444444444444 514.9736824612088 611.088888888889 389.7872380167643 636.1333333333333 386.781904683431C661.1777777777778 383.77657135009764 654.0222222222222 490.6447935723198 679.0666666666667 492.397904683431C704.1111111111111 494.1510157945421 709.4777777777778 421.8441269056532 722 392.79257135009766 " transform="rotate(105, 400, 400)"></path><path d="M89.5 412.09397106933596C101.57499999999999 392.7739710693359 106.75 328.9489710693359 130.9 345.85397106933596C155.05 362.7589710693359 148.15 483.33647106933597 172.3 470.05397106933594C196.45 456.7714710693359 189.55 294.2764710693359 213.7 300.31397106933593C237.85 306.35147106933596 230.95 467.811471069336 255.1 490.753971069336C279.25 513.696471069336 272.35 399.74297106933597 296.5 378.97397106933596C320.65 358.20497106933595 313.75 418.57997106933595 337.9 419.54597106933596C362.05 420.5119710693359 355.15 369.00347106933594 379.3 382.2859710693359C403.45 395.56847106933594 396.55 477.643971069336 420.7 465.085971069336C444.85 452.52797106933593 437.95 350.8219710693359 462.1 339.22997106933593C486.25 327.63797106933595 479.35 423.16847106933596 503.5 425.34197106933595C527.65 427.51547106933594 520.75 325.18847106933595 544.9 346.68197106933593C569.05 368.17547106933597 562.15 487.20047106933595 586.3 499.03397106933596C610.45 510.8674710693359 603.55 390.15197106933596 627.7 387.25397106933593C651.85 384.35597106933596 644.95 487.40747106933594 669.1 489.0979710693359C693.25 490.78847106933597 698.425 421.06397106933593 710.5 393.0499710693359 " transform="rotate(101.25, 400, 400)"></path><path d="M101 411.6460527140299C112.62777777777777 393.0416082695855 117.61111111111111 331.5804971584744 140.86666666666667 347.8593860473633C164.1222222222222 364.1382749362522 157.47777777777776 480.24994160291885 180.73333333333335 467.4593860473633C203.98888888888888 454.66883049180774 197.34444444444446 298.19216382514105 220.6 304.0060527140299C243.85555555555555 309.81994160291885 237.21111111111114 465.2999416029188 260.4666666666667 487.3927193806966C283.7222222222223 509.4854971584744 277.0777777777778 399.7524971584744 300.33333333333337 379.7527193806966C323.5888888888889 359.75294160291884 316.94444444444446 417.8918304918077 340.2 418.82205271402995C363.4555555555556 419.75227493625215 356.8111111111111 370.1514971584744 380.06666666666666 382.94205271402996C403.32222222222225 395.7326082695855 396.67777777777775 474.76827493625217 419.93333333333334 462.6753860473633C443.1888888888889 450.5824971584743 436.5444444444444 352.64338604736326 459.8 341.4807193806966C483.0555555555555 330.31805271402993 476.41111111111115 422.3103860473633 499.6666666666667 424.40338604736326C522.9222222222222 426.4963860473633 516.2777777777778 327.9592749362522 539.5333333333333 348.6567193806966C562.7888888888888 369.3541638251411 556.1444444444445 483.9708304918077 579.4 495.36605271402993C602.6555555555556 506.76127493625216 596.0111111111112 390.5167193806966 619.2666666666667 387.72605271402995C642.5222222222221 384.9353860473633 635.8777777777779 484.17016382514106 659.1333333333333 485.79805271402995C682.3888888888888 487.42594160291884 687.3722222222221 420.2838304918077 699 393.30738604736325 " transform="rotate(97.5, 400, 400)"></path><path d="M112.5 411.19812672932943C123.68055555555554 393.3092378404405 128.47222222222223 334.2120156182183 150.83333333333334 349.8647933959961C173.19444444444443 365.5175711737739 166.80555555555554 477.1634045071072 189.16666666666669 464.8647933959961C211.52777777777777 452.566182284885 205.1388888888889 302.10784895155166 227.5 307.69812672932943C249.86111111111111 313.2884045071072 243.47222222222223 462.7884045071072 265.83333333333337 484.03146006266275C288.19444444444446 505.2745156182183 281.80555555555554 399.7620156182183 304.16666666666663 380.53146006266275C326.5277777777778 361.3009045071072 320.1388888888889 417.20368228488496 342.5 418.0981267293294C364.8611111111111 418.99257117377385 358.4722222222222 371.2995156182183 380.8333333333333 383.5981267293294C403.19444444444446 395.89673784044055 396.80555555555554 471.89257117377383 419.1666666666667 460.2647933959961C441.52777777777777 448.6370156182183 435.13888888888886 354.4647933959961 457.5 343.7314600626628C479.8611111111111 332.99812672932944 473.47222222222223 421.4522933959961 495.8333333333333 423.4647933959961C518.1944444444443 425.47729339599607 511.8055555555556 330.73007117377387 534.1666666666667 350.63146006266277C556.5277777777778 370.53284895155167 550.1388888888889 480.741182284885 572.5 491.6981267293294C594.8611111111111 502.6550711737739 588.4722222222222 390.88146006266277 610.8333333333333 388.19812672932943C633.1944444444445 385.5147933959961 626.8055555555555 480.9328489515516 649.1666666666666 482.49812672932944C671.5277777777777 484.0634045071072 676.3194444444445 419.503682284885 687.5 393.5647933959961 " transform="rotate(93.75, 400, 400)"></path><path d="M124 410.75019311523437C134.73333333333332 393.576859781901 139.33333333333331 336.84352644856773 160.8 351.8701931152344C182.26666666666665 366.896859781901 176.13333333333333 474.076859781901 197.6 462.2701931152344C219.06666666666666 450.4635264485677 212.93333333333334 306.02352644856774 234.4 311.3901931152344C255.86666666666667 316.756859781901 249.73333333333335 460.27685978190107 271.2 480.6701931152344C292.6666666666667 501.0635264485677 286.5333333333333 399.7715264485677 308 381.31019311523437C329.4666666666667 362.848859781901 323.33333333333337 416.5155264485677 344.8 417.3741931152344C366.26666666666665 418.232859781901 360.1333333333333 372.4475264485677 381.6 384.2541931152344C403.06666666666666 396.06085978190106 396.93333333333334 469.0168597819011 418.4 457.85419311523435C439.8666666666667 446.6915264485677 433.73333333333335 356.28619311523437 455.2 345.9821931152344C476.6666666666667 335.67819311523436 470.53333333333336 420.59419311523436 492 422.5261931152344C513.4666666666667 424.4581931152344 507.3333333333333 333.500859781901 528.8 352.60619311523436C550.2666666666667 371.7115264485677 544.1333333333333 477.5115264485677 565.6 488.0301931152344C587.0666666666666 498.54885978190106 580.9333333333334 391.2461931152344 602.4 388.6701931152344C623.8666666666667 386.09419311523436 617.7333333333333 477.6955264485677 639.2 479.1981931152344C660.6666666666666 480.70085978190104 665.2666666666667 418.72352644856767 676 393.82219311523437 " transform="rotate(90, 400, 400)"></path><path d="M135.5 410.30229764811196C145.7861111111111 393.8445198703342 150.19444444444446 339.47507542588977 170.76666666666665 353.8756309814453C191.3388888888889 368.27618653700085 185.4611111111111 470.99035320366755 206.03333333333333 459.67563098144535C226.60555555555555 448.3609087592231 220.72777777777776 309.9392420925564 241.3 315.082297648112C261.8722222222222 320.2253532036675 255.99444444444447 457.76535320366753 276.56666666666666 477.3089643147787C297.1388888888889 496.85257542588977 291.26111111111106 399.78107542588975 311.83333333333337 382.08896431477865C332.40555555555557 364.39685320366755 326.5277777777777 415.8274087592231 347.1 416.650297648112C367.6722222222222 417.47318653700086 361.7944444444444 373.59557542588976 382.3666666666667 384.91029764811196C402.9388888888889 396.2250198703342 397.0611111111111 466.14118653700086 417.6333333333333 455.4436309814453C438.2055555555556 444.7460754258898 432.3277777777777 358.1076309814453 452.9 348.23296431477866C473.47222222222223 338.35829764811194 467.59444444444443 419.7361309814453 488.1666666666667 421.58763098144533C508.7388888888888 423.4391309814453 502.86111111111114 336.27168653700085 523.4333333333334 354.5809643147786C544.0055555555555 372.89024209255643 538.1277777777779 474.2819087592231 558.7 484.36229764811196C579.2722222222221 494.4426865370009 573.3944444444445 391.61096431477864 593.9666666666667 389.142297648112C614.5388888888888 386.6736309814453 608.6611111111112 474.4582420925564 629.2333333333333 475.898297648112C649.8055555555555 477.33835320366757 654.2138888888888 417.9434087592231 664.5 394.07963098144535 " transform="rotate(86.25, 400, 400)"></path><path d="M147 409.85431062825523C156.8388888888889 394.11208840603297 161.05555555555554 342.10653285047744 180.73333333333335 355.8809772949219C200.4111111111111 369.6554217393663 194.7888888888889 467.90375507269965 214.46666666666667 457.08097729492187C234.14444444444445 446.25819951714413 228.52222222222224 313.85486618381077 248.2 318.7743106282552C267.87777777777774 323.6937550726997 262.2555555555556 455.2537550726996 281.93333333333334 473.94764396158854C301.6111111111111 492.64153285047746 295.9888888888889 399.79053285047746 315.66666666666663 382.86764396158856C335.34444444444443 365.94475507269965 329.7222222222222 415.1391995171441 349.4 415.92631062825524C369.0777777777778 416.7134217393663 363.4555555555555 374.74353285047744 383.1333333333333 385.5663106282552C402.81111111111113 396.389088406033 397.18888888888887 463.2654217393664 416.8666666666667 453.0329772949219C436.5444444444445 442.80053285047745 430.9222222222222 359.9289772949219 450.6 350.48364396158854C470.27777777777777 341.0383106282552 464.65555555555557 418.8779772949219 484.3333333333333 420.6489772949219C504.01111111111106 422.41997729492186 498.3888888888889 339.0424217393663 518.0666666666666 356.55564396158854C537.7444444444444 374.06886618381077 532.1222222222223 471.0521995171441 551.8 480.6943106282552C571.4777777777778 490.3364217393663 565.8555555555556 391.97564396158856 585.5333333333333 389.6143106282552C605.2111111111111 387.2529772949219 599.588888888889 471.22086618381076 619.2666666666667 472.59831062825526C638.9444444444443 473.97575507269966 643.161111111111 417.1631995171441 653 394.3369772949219 " transform="rotate(82.5, 400, 400)"></path><path d="M158.5 409.4064533081055C167.89166666666665 394.37978664143884 171.91666666666666 344.73811997477213 190.7 357.8864533081055C209.48333333333332 371.0347866414388 204.11666666666667 464.81728664143884 222.9 454.48645330810547C241.68333333333334 444.15561997477215 236.31666666666666 317.7706199747721 255.1 322.4664533081055C273.8833333333333 327.1622866414388 268.51666666666665 452.7422866414388 287.3 470.5864533081055C306.08333333333337 488.4306199747722 300.71666666666664 399.80011997477214 319.5 383.6464533081055C338.2833333333333 367.4927866414388 332.91666666666663 414.45111997477215 351.7 415.2024533081055C370.48333333333335 415.9537866414388 365.1166666666667 375.89161997477214 383.9 386.22245330810546C402.68333333333334 396.55328664143883 397.31666666666666 460.38978664143883 416.1 450.6224533081055C434.8833333333333 440.85511997477215 429.51666666666665 361.7504533081055 448.3 352.73445330810546C467.0833333333333 343.7184533081055 461.7166666666667 418.01995330810547 480.5 419.71045330810546C499.2833333333333 421.4009533081055 493.9166666666667 341.8132866414388 512.7 358.5304533081055C531.4833333333333 375.24761997477214 526.1166666666667 467.8226199747721 544.9 477.0264533081055C563.6833333333334 486.23028664143885 558.3166666666666 392.34045330810545 577.1 390.0864533081055C595.8833333333333 387.83245330810547 590.5166666666667 467.9836199747722 609.3 469.2984533081055C628.0833333333333 470.61328664143883 632.1083333333333 416.3831199747721 641.5 394.59445330810547 " transform="rotate(78.75, 400, 400)"></path><path d="M170 408.95850443522136C178.94444444444446 394.6473933241102 182.77777777777777 347.36961554633245 200.66666666666669 359.8918377685547C218.55555555555554 372.4140599907769 213.44444444444446 461.7307266574436 231.33333333333334 451.8918377685547C249.22222222222223 442.0529488796658 244.11111111111111 321.6862822129991 262 326.15850443522135C279.88888888888886 330.6307266574436 274.77777777777777 450.2307266574436 292.6666666666667 467.225171101888C310.55555555555554 484.2196155463325 305.44444444444446 399.80961554633245 323.33333333333337 384.425171101888C341.22222222222223 369.04072665744354 336.1111111111111 413.7629488796658 354 414.47850443522134C371.8888888888889 415.1940599907769 366.7777777777777 377.03961554633247 384.66666666666663 386.8785044352214C402.55555555555554 396.7173933241102 397.44444444444446 457.5140599907769 415.33333333333337 448.2118377685547C433.22222222222223 438.9096155463325 428.1111111111111 363.5718377685547 446 354.985171101888C463.88888888888886 346.39850443522135 458.77777777777777 417.1618377685547 476.6666666666667 418.7718377685547C494.55555555555554 420.3818377685547 489.44444444444446 344.5840599907769 507.3333333333333 360.50517110188804C525.2222222222222 376.4262822129991 520.1111111111111 464.59294887966576 538 473.35850443522133C555.8888888888889 482.1240599907769 550.7777777777778 392.705171101888 568.6666666666667 390.5585044352214C586.5555555555554 388.4118377685547 581.4444444444446 464.7462822129991 599.3333333333333 465.9985044352213C617.2222222222222 467.2507266574436 621.0555555555554 415.6029488796658 630 394.8518377685547 " transform="rotate(75, 400, 400)"></path><path d="M181.5 408.51055556233723C189.9972222222222 394.91500000678167 193.63888888888889 350.00111111789283 210.63333333333333 361.8972222290039C227.62777777777777 373.793333340115 222.7722222222222 458.64416667344835 239.76666666666665 449.2972222290039C256.7611111111111 439.9502777845595 251.90555555555557 325.60194445122613 268.9 329.85055556233726C285.89444444444445 334.09916667344834 281.0388888888889 447.71916667344834 298.0333333333333 463.8638888956706C315.0277777777778 480.00861111789277 310.1722222222222 399.8191111178928 327.16666666666663 385.20388889567056C344.16111111111115 370.58866667344836 339.30555555555554 413.07477778455944 356.3 413.75455556233726C373.2944444444445 414.434333340115 368.43888888888887 378.1876111178928 385.43333333333334 387.53455556233723C402.4277777777778 396.88150000678166 397.5722222222222 454.638333340115 414.56666666666666 445.8012222290039C431.56111111111113 436.9641111178928 426.7055555555555 365.39322222900387 443.7 357.23588889567054C460.6944444444444 349.0785555623372 455.8388888888889 416.3037222290039 472.8333333333333 417.8332222290039C489.8277777777777 419.3627222290039 484.97222222222223 347.354833340115 501.96666666666664 362.47988889567057C518.9611111111111 377.6049444512261 514.1055555555556 461.36327778455944 531.1 469.6905555623372C548.0944444444444 478.017833340115 543.2388888888889 393.06988889567054 560.2333333333333 391.0305555623372C577.2277777777778 388.9912222290039 572.3722222222223 461.5089444512261 589.3666666666667 462.6985555623372C606.3611111111111 463.8881666734484 610.0027777777777 414.82277778455943 618.5 395.1092222290039 " transform="rotate(71.25, 400, 400)"></path><path d="M193 408.0626524658203C201.05 395.1826524658203 204.5 352.63265246582034 220.6 363.9026524658203C236.7 375.1726524658203 232.1 455.5576524658203 248.2 446.70265246582034C264.3 437.8476524658203 259.7 329.51765246582033 275.8 333.5426524658203C291.9 337.5676524658203 287.3 445.2076524658203 303.4 460.50265246582035C319.5 475.7976524658203 314.9 399.8286524658203 331 385.9826524658203C347.1 372.1366524658203 342.5 412.3866524658203 358.6 413.0306524658203C374.7 413.6746524658203 370.1 379.3356524658203 386.2 388.19065246582034C402.3 397.0456524658203 397.7 451.76265246582034 413.8 443.3906524658203C429.9 435.0186524658203 425.3 367.21465246582034 441.4 359.4866524658203C457.49999999999994 351.7586524658203 452.90000000000003 415.44565246582033 469 416.8946524658203C485.09999999999997 418.3436524658203 480.50000000000006 350.1256524658203 496.6 364.45465246582035C512.7 378.7836524658203 508.1 458.1336524658203 524.2 466.02265246582033C540.3 473.91165246582034 535.7 393.4346524658203 551.8 391.5026524658203C567.9 389.57065246582033 563.3 458.2716524658203 579.4 459.3986524658203C595.5 460.5256524658203 598.95 414.0426524658203 607 395.3666524658203 " transform="rotate(67.5, 400, 400)"></path><path d="M204.5 407.61471503702796C212.10277777777776 395.45027059258354 215.36111111111111 355.26415948147246 230.56666666666666 365.9080483703613C245.7722222222222 376.5519372592502 241.42777777777778 452.47110392591685 256.6333333333333 444.1080483703613C271.8388888888889 435.74499281480576 267.4944444444444 333.4333261481391 282.7 337.23471503702797C297.90555555555557 341.0361039259169 293.56111111111113 442.6961039259169 308.76666666666665 457.14138170369466C323.97222222222223 471.58665948147245 319.62777777777774 399.8381594814724 334.83333333333337 386.76138170369467C350.0388888888889 373.68460392591686 345.69444444444446 411.6984928148058 360.9 412.30671503702797C376.10555555555555 412.9149372592502 371.76111111111106 380.48365948147244 386.9666666666667 388.846715037028C402.1722222222222 397.20977059258354 397.8277777777778 448.8869372592502 413.0333333333333 440.9800483703613C428.23888888888894 433.07315948147243 423.8944444444444 369.0360483703613 439.1 361.73738170369467C454.30555555555554 354.43871503702803 449.9611111111111 414.58754837036133 465.1666666666667 415.9560483703613C480.3722222222222 417.3245483703613 476.02777777777777 352.8964372592502 491.23333333333335 366.4293817036947C506.43888888888887 379.96232614813914 502.09444444444443 454.90399281480575 517.3 462.354715037028C532.5055555555555 469.8054372592502 528.161111111111 393.7993817036947 543.3666666666667 391.974715037028C558.5722222222222 390.15004837036133 554.2277777777779 455.0343261481391 569.4333333333334 456.098715037028C584.6388888888889 457.1631039259169 587.8972222222221 413.2624928148058 595.5 395.6240483703613 " transform="rotate(63.75, 400, 400)"></path><path d="M216 407.166796681722C223.15555555555557 395.7179077928331 226.22222222222223 357.8956855706109 240.53333333333333 367.9134633483887C254.84444444444443 377.93124112616647 250.75555555555556 449.3845744594998 265.06666666666666 441.51346334838865C279.37777777777774 433.6423522372776 275.2888888888889 337.3490189039442 289.6 340.926796681722C303.9111111111111 344.5045744594998 299.8222222222222 440.1845744594998 314.1333333333333 453.7801300150553C328.44444444444446 467.3756855706109 324.35555555555555 399.8476855706109 338.6666666666667 387.54013001505535C352.97777777777776 375.2325744594998 348.8888888888889 411.0103522372776 363.2 411.582796681722C377.5111111111111 412.15524112616646 373.4222222222222 381.6316855706109 387.73333333333335 389.502796681722C402.0444444444445 397.3739077928331 397.9555555555555 446.01124112616645 412.26666666666665 438.5694633483887C426.5777777777778 431.1276855706109 422.4888888888889 370.8574633483887 436.8 363.98813001505533C451.1111111111111 357.118796681722 447.02222222222224 413.72946334838866 461.33333333333337 415.0174633483887C475.64444444444445 416.3054633483887 471.55555555555554 355.66724112616646 485.8666666666667 368.40413001505533C500.17777777777775 381.1410189039442 496.0888888888889 451.67435223727756 510.4 458.686796681722C524.7111111111111 465.69924112616644 520.6222222222223 394.1641300150553 534.9333333333334 392.446796681722C549.2444444444444 390.72946334838866 545.1555555555556 451.7970189039442 559.4666666666667 452.798796681722C573.7777777777778 453.8005744594998 576.8444444444444 412.48235223727755 584 395.88146334838865 " transform="rotate(60, 400, 400)"></path><path d="M227.5 406.7188668823242C234.20833333333331 395.9855335489909 237.08333333333331 360.52720021565756 250.5 369.9188668823242C263.91666666666663 379.31053354899086 260.08333333333337 446.2980335489909 273.5 438.9188668823242C286.91666666666663 431.53970021565755 283.08333333333337 341.26470021565757 296.5 344.6188668823242C309.9166666666667 347.9730335489909 306.0833333333333 437.6730335489909 319.5 450.4188668823242C332.9166666666667 463.1647002156576 329.0833333333333 399.85720021565754 342.5 388.31886688232424C355.91666666666663 376.7805335489909 352.0833333333333 410.3222002156576 365.5 410.8588668823242C378.91666666666663 411.3955335489909 375.08333333333337 382.77970021565756 388.5 390.1588668823242C401.91666666666663 397.5380335489909 398.08333333333337 443.1355335489909 411.5 436.1588668823242C424.91666666666663 429.18220021565753 421.08333333333337 372.6788668823242 434.5 366.2388668823242C447.91666666666663 359.7988668823242 444.08333333333337 412.8713668823242 457.5 414.07886688232423C470.91666666666663 415.2863668823242 467.08333333333337 358.4380335489909 480.5 370.37886688232425C493.9166666666667 382.3197002156576 490.0833333333333 448.4447002156575 503.5 455.01886688232423C516.9166666666667 461.5930335489909 513.0833333333333 394.5288668823242 526.5 392.9188668823242C539.9166666666667 391.3088668823242 536.0833333333333 448.55970021565753 549.5 449.49886688232425C562.9166666666667 450.4380335489909 565.7916666666667 411.7022002156575 572.5 396.13886688232424 " transform="rotate(56.25, 400, 400)"></path><path d="M239 406.2709485270182C245.26111111111112 396.25317074924044 247.94444444444446 363.158726304796 260.4666666666667 371.9242818603516C272.9888888888889 380.6898374159071 269.4111111111111 443.2115040825738 281.93333333333334 436.32428186035156C294.4555555555555 429.43705963812937 290.8777777777778 345.18039297146265 303.4 348.31094852701824C315.9222222222222 351.4415040825738 312.34444444444443 435.1615040825738 324.8666666666667 447.0576151936849C337.3888888888889 458.953726304796 333.81111111111113 399.86672630479603 346.3333333333333 389.0976151936849C358.85555555555555 378.3285040825738 355.27777777777777 409.6340596381293 367.8 410.13494852701825C380.3222222222222 410.63583741590713 376.7444444444444 383.927726304796 389.26666666666665 390.81494852701826C401.7888888888889 397.70217074924045 398.2111111111111 440.2598374159071 410.73333333333335 433.74828186035154C423.2555555555556 427.236726304796 419.67777777777775 374.50028186035155 432.2 368.4896151936849C444.7222222222222 362.47894852701825 441.14444444444445 412.0132818603516 453.66666666666663 413.1402818603516C466.18888888888887 414.26728186035155 462.6111111111111 361.2088374159071 475.1333333333333 372.3536151936849C487.65555555555557 383.4983929714627 484.0777777777778 445.21505963812933 496.6 451.3509485270182C509.1222222222222 457.48683741590713 505.5444444444445 394.8936151936849 518.0666666666666 393.3909485270182C530.588888888889 391.8882818603516 527.0111111111112 445.32239297146265 539.5333333333333 446.1989485270183C552.0555555555555 447.0755040825738 554.7388888888888 410.9220596381293 561 396.39628186035156 " transform="rotate(52.5, 400, 400)"></path><path d="M250.5 405.82302635701495C256.31388888888887 396.52080413479274 258.80555555555554 365.7902485792372 270.43333333333334 373.92969302368164C282.06111111111113 382.0691374681261 278.7388888888889 440.1249708014594 290.3666666666667 433.72969302368165C301.9944444444444 427.33441524590387 298.6722222222222 349.0960819125705 310.3 352.00302635701496C321.9277777777778 354.9099708014594 318.60555555555555 432.6499708014594 330.23333333333335 443.6963596903483C341.86111111111114 454.7427485792372 338.5388888888889 399.8762485792372 350.1666666666667 389.8763596903483C361.7944444444445 379.8764708014594 358.47222222222223 408.94591524590385 370.1 409.411026357015C381.72777777777776 409.8761374681261 378.40555555555557 385.0757485792372 390.0333333333333 391.471026357015C401.66111111111115 397.86630413479276 398.33888888888885 437.3841374681261 409.9666666666667 431.33769302368165C421.59444444444443 425.29124857923716 418.27222222222224 376.32169302368163 429.9 370.7403596903483C441.5277777777777 365.15902635701497 438.2055555555556 411.15519302368165 449.83333333333337 412.2016930236816C461.4611111111111 413.24819302368167 458.1388888888889 363.9796374681261 469.76666666666665 374.3283596903483C481.3944444444444 384.67708191257054 478.07222222222225 441.9854152459038 489.7 447.68302635701497C501.3277777777778 453.3806374681261 498.0055555555556 395.2583596903483 509.6333333333333 393.863026357015C521.2611111111111 392.46769302368165 517.9388888888889 442.08508191257056 529.5666666666666 442.899026357015C541.1944444444443 443.7129708014594 543.6861111111111 410.1419152459039 549.5 396.6536930236816 " transform="rotate(48.75, 400, 400)"></path><path d="M262 405.37509274291995C267.3666666666667 396.78842607625324 269.6666666666667 368.42175940958657 280.4 375.9350927429199C291.1333333333333 383.4484260762532 288.06666666666666 437.03842607625324 298.8 431.13509274291994C309.5333333333333 425.2317594095866 306.4666666666667 353.0117594095866 317.2 355.69509274291994C327.93333333333334 358.3784260762533 324.8666666666667 430.13842607625327 335.6 440.3350927429199C346.33333333333337 450.5317594095866 343.26666666666665 399.88575940958657 354 390.6550927429199C364.73333333333335 381.42442607625327 361.6666666666667 408.2577594095866 372.4 408.6870927429199C383.1333333333333 409.1164260762533 380.06666666666666 386.2237594095866 390.8 392.1270927429199C401.5333333333333 398.03042607625326 398.4666666666667 434.5084260762533 409.2 428.9270927429199C419.93333333333334 423.34575940958655 416.8666666666667 378.1430927429199 427.6 372.99109274291993C438.33333333333337 367.8390927429199 435.26666666666665 410.2970927429199 446 411.2630927429199C456.73333333333335 412.22909274291993 453.66666666666663 366.75042607625323 464.4 376.30309274291994C475.1333333333333 385.8557594095866 472.06666666666666 438.7557594095866 482.8 444.01509274291993C493.5333333333333 449.27442607625323 490.4666666666667 395.62309274291994 501.2 394.3350927429199C511.93333333333334 393.0470927429199 508.8666666666667 438.8477594095866 519.6 439.59909274291994C530.3333333333333 440.35042607625326 532.6333333333333 409.36175940958657 538 396.9110927429199 " transform="rotate(45, 400, 400)"></path><path d="M273.5 404.9271782023112C278.4194444444444 397.0560670912001 280.52777777777777 371.0532893134223 290.3666666666667 377.94051153564453C300.2055555555555 384.8277337578668 297.39444444444445 433.9519004245334 307.23333333333335 428.54051153564455C317.0722222222222 423.12912264675566 314.2611111111111 356.927455980089 324.1 359.3871782023112C333.93888888888887 361.84690042453343 331.1277777777778 427.6269004245334 340.9666666666667 436.97384486897784C350.80555555555554 446.3207893134223 347.9944444444444 399.8952893134223 357.8333333333333 391.43384486897787C367.6722222222222 382.9724004245334 364.8611111111111 407.56962264675565 374.7 407.9631782023112C384.5388888888889 408.3567337578668 381.72777777777776 387.3717893134223 391.56666666666666 392.7831782023112C401.40555555555557 398.1945670912001 398.59444444444443 431.6327337578668 408.43333333333334 426.51651153564455C418.27222222222224 421.4002893134223 415.4611111111111 379.96451153564453 425.3 375.24184486897786C435.1388888888889 370.5191782023112 432.3277777777778 409.43901153564457 442.16666666666663 410.32451153564455C452.00555555555553 411.2100115356445 449.19444444444446 369.52123375786675 459.0333333333333 378.27784486897787C468.8722222222222 387.034455980089 466.06111111111113 435.52612264675565 475.9 440.34717820231117C485.7388888888889 445.16823375786674 482.9277777777778 395.98784486897785 492.76666666666665 394.8071782023112C502.60555555555555 393.62651153564457 499.7944444444445 435.610455980089 509.6333333333333 436.2991782023112C519.4722222222222 436.98790042453345 521.5805555555555 408.58162264675565 526.5 397.16851153564454 " transform="rotate(41.25, 400, 400)"></path><path d="M285 404.4792522176107C289.47222222222223 397.3236966620551 291.3888888888889 373.6848077731662 300.3333333333333 379.9459188842774C309.27777777777777 386.20702999538844 306.72222222222223 430.8653633287218 315.6666666666667 425.9459188842773C324.6111111111111 421.0264744398329 322.05555555555554 360.84314110649956 331 363.0792522176107C339.94444444444446 365.3153633287218 337.3888888888889 425.1153633287218 346.33333333333337 433.612585550944C355.27777777777777 442.10980777316627 352.72222222222223 399.9048077731662 361.6666666666667 392.212585550944C370.6111111111111 384.52036332872177 368.05555555555554 406.8814744398329 377 407.23925221761067C385.94444444444446 407.5970299953884 383.38888888888886 388.51980777316624 392.3333333333333 393.43925221761066C401.27777777777777 398.3586966620551 398.72222222222223 428.75702999538845 407.6666666666667 424.10591888427734C416.6111111111111 419.45480777316624 414.05555555555554 381.78591888427735 423 377.492585550944C431.94444444444446 373.1992522176107 429.3888888888889 408.58091888427737 438.33333333333337 409.3859188842773C447.27777777777777 410.1909188842773 444.72222222222223 372.2920299953885 453.66666666666663 380.252585550944C462.6111111111111 388.21314110649956 460.05555555555554 432.2964744398329 469 436.67925221761067C477.94444444444446 441.06202999538846 475.3888888888889 396.352585550944 484.33333333333337 395.2792522176107C493.2777777777777 394.20591888427737 490.7222222222223 432.3731411064996 499.66666666666663 432.99925221761066C508.6111111111111 433.6253633287218 510.5277777777777 407.8014744398329 515 397.42591888427734 " transform="rotate(37.5, 400, 400)"></path><path d="M296.5 404.03132623291015C300.525 397.59132623291015 302.25 376.31632623291017 310.3 381.95132623291016C318.35 387.58632623291015 316.05 427.77882623291015 324.1 423.35132623291014C332.15 418.9238262329102 329.85 364.75882623291017 337.9 366.77132623291016C345.95 368.78382623291014 343.65 422.60382623291014 351.7 430.2513262329102C359.75 437.89882623291015 357.45 399.9143262329102 365.5 392.9913262329102C373.55 386.0683262329102 371.25 406.1933262329102 379.3 406.5153262329102C387.35 406.8373262329102 385.05 389.66782623291016 393.1 394.09532623291017C401.15 398.5228262329101 398.85 425.88132623291017 406.9 421.69532623291013C414.95 417.50932623291015 412.65 383.60732623291017 420.7 379.74332623291014C428.75 375.87932623291016 426.45000000000005 407.72282623291017 434.5 408.44732623291014C442.54999999999995 409.1718262329102 440.25 375.06282623291014 448.3 382.2273262329102C456.35 389.39182623291015 454.05 429.06682623291016 462.1 433.01132623291016C470.15 436.95582623291017 467.85 396.7173262329102 475.9 395.7513262329102C483.95 394.78532623291017 481.65 429.1358262329102 489.7 429.69932623291015C497.75 430.26282623291013 499.475 407.02132623291016 503.5 397.6833262329102 " transform="rotate(33.75, 400, 400)"></path><path d="M308 403.5834040629069C311.5777777777778 397.85895961846245 313.1111111111111 378.94784850735135 320.26666666666665 383.9567373962402C327.4222222222222 388.96562628512913 325.3777777777778 424.69229295179576 332.5333333333333 420.7567373962402C339.68888888888887 416.8211818406847 337.64444444444445 368.674515174018 344.8 370.4634040629069C351.9555555555555 372.25229295179577 349.9111111111111 420.0922929517958 357.06666666666666 426.89007072957355C364.22222222222223 433.68784850735136 362.1777777777778 399.92384850735135 369.33333333333337 393.7700707295736C376.4888888888889 387.6162929517958 374.44444444444446 405.5051818406847 381.6 405.7914040629069C388.7555555555556 406.0776262851291 386.7111111111111 390.81584850735135 393.8666666666667 394.7514040629069C401.02222222222224 398.6869596184624 398.97777777777776 423.0056262851291 406.1333333333333 419.28473739624025C413.2888888888889 415.56384850735134 411.2444444444444 385.42873739624025 418.4 381.99407072957354C425.55555555555554 378.5594040629069 423.5111111111111 406.86473739624023 430.6666666666667 407.50873739624024C437.8222222222222 408.15273739624024 435.77777777777777 377.8336262851291 442.93333333333334 384.20207072957356C450.08888888888885 390.570515174018 448.0444444444445 425.83718184068465 455.2 429.34340406290687C462.35555555555555 432.84962628512915 460.31111111111113 397.08207072957356 467.4666666666667 396.22340406290687C474.6222222222222 395.36473739624023 472.5777777777778 425.89851517401803 479.73333333333335 426.3994040629069C486.8888888888889 426.9002929517958 488.4222222222222 406.2411818406847 492 397.94073739624025 " transform="rotate(30, 400, 400)"></path><path d="M319.5 403.1354742635091C322.63055555555553 398.1265853746202 323.97222222222223 381.579363152398 330.23333333333335 385.9621409301758C336.4944444444444 390.3449187079535 334.7055555555555 421.6057520412869 340.9666666666667 418.1621409301758C347.22777777777776 414.71852981906466 345.43888888888887 372.5901964857313 351.7 374.1554742635091C357.9611111111111 375.7207520412869 356.1722222222222 417.58075204128687 362.43333333333334 423.52880759684246C368.69444444444446 429.47686315239804 366.90555555555557 399.933363152398 373.16666666666663 394.54880759684244C379.4277777777778 389.1642520412869 377.6388888888889 404.81702981906466 383.9 405.0674742635091C390.1611111111111 405.3179187079536 388.3722222222222 391.963863152398 394.6333333333333 395.40747426350913C400.89444444444445 398.8510853746202 399.10555555555555 420.12991870795355 405.3666666666667 416.87414093017577C411.6277777777778 413.618363152398 409.83888888888885 387.2501409301758 416.1 384.24480759684246C422.3611111111111 381.2394742635091 420.5722222222222 406.00664093017576 426.8333333333333 406.5701409301758C433.09444444444443 407.1336409301758 431.30555555555554 380.6044187079535 437.56666666666666 386.1768075968424C443.8277777777778 391.7491964857313 442.0388888888889 422.60752981906467 448.3 425.6754742635091C454.56111111111113 428.74341870795354 452.77222222222224 397.44680759684246 459.0333333333333 396.69547426350914C465.2944444444445 395.94414093017576 463.5055555555556 422.66119648573135 469.76666666666665 423.09947426350914C476.02777777777777 423.5377520412869 477.3694444444444 405.46102981906466 480.5 398.1981409301758 " transform="rotate(26.25, 400, 400)"></path><path d="M331 402.68754637146C333.68333333333334 398.3942130381266 334.8333333333333 384.2108797047933 340.2 387.96754637145995C345.56666666666666 391.7242130381266 344.0333333333333 418.5192130381266 349.4 415.56754637145997C354.76666666666665 412.6158797047933 353.23333333333335 376.5058797047933 358.6 377.84754637145994C363.9666666666667 379.18921303812664 362.43333333333334 415.06921303812663 367.8 420.16754637145993C373.1666666666667 425.2658797047933 371.6333333333333 399.9428797047933 377 395.32754637145996C382.3666666666667 390.7122130381266 380.83333333333337 404.1288797047933 386.2 404.34354637146C391.56666666666666 404.5582130381266 390.0333333333333 393.1118797047933 395.4 396.06354637145995C400.76666666666665 399.0152130381266 399.23333333333335 417.25421303812664 404.6 414.46354637146C409.9666666666667 411.6728797047933 408.43333333333334 389.07154637145993 413.8 386.49554637145997C419.1666666666667 383.91954637145994 417.6333333333333 405.14854637145993 423 405.63154637146C428.3666666666667 406.11454637145994 426.8333333333333 383.3752130381266 432.2 388.15154637146C437.56666666666666 392.9278797047933 436.0333333333333 419.3778797047933 441.4 422.00754637145997C446.76666666666665 424.6372130381266 445.23333333333335 397.81154637145994 450.6 397.16754637145993C455.9666666666667 396.52354637145993 454.43333333333334 419.4238797047933 459.8 419.79954637145994C465.16666666666663 420.1752130381266 466.31666666666666 404.68087970479326 469 398.45554637145995 " transform="rotate(22.5, 400, 400)"></path><path d="M342.5 402.23962610880534C344.7361111111111 398.66184833102756 345.69444444444446 386.8424038865831 350.1666666666667 389.9729594421387C354.6388888888889 393.1035149976942 353.3611111111111 415.43268166436087 357.8333333333333 412.9729594421387C362.30555555555554 410.51323721991645 361.02777777777777 380.4215705532498 365.5 381.53962610880535C369.97222222222223 382.6576816643609 368.69444444444446 412.55768166436087 373.1666666666667 416.806292775472C377.6388888888889 421.05490388658313 376.3611111111111 399.9524038865831 380.83333333333337 396.106292775472C385.30555555555554 392.26018166436086 384.02777777777777 403.44073721991646 388.5 403.61962610880533C392.97222222222223 403.7985149976942 391.69444444444446 394.2599038865831 396.16666666666663 396.71962610880536C400.6388888888889 399.17934833102754 399.3611111111111 414.3785149976942 403.83333333333337 412.0529594421387C408.30555555555554 409.72740388658315 407.02777777777777 390.8929594421387 411.5 388.746292775472C415.97222222222223 386.59962610880535 414.69444444444446 404.2904594421387 419.1666666666667 404.69295944213866C423.6388888888889 405.0954594421387 422.3611111111111 386.14601499769424 426.8333333333333 390.126292775472C431.30555555555554 394.10657055324975 430.02777777777777 416.14823721991644 434.5 418.3396261088053C438.97222222222223 420.53101499769423 437.69444444444446 398.176292775472 442.1666666666667 397.6396261088054C446.63888888888886 397.1029594421387 445.36111111111114 416.1865705532498 449.8333333333333 416.49962610880533C454.30555555555554 416.81268166436087 455.26388888888886 403.90073721991644 457.5 398.71295944213864 " transform="rotate(18.75, 400, 400)"></path><path d="M354 401.79169630940754C355.7888888888889 398.9294740871853 356.55555555555554 389.4739185316298 360.1333333333333 391.9783629760742C363.7111111111111 394.48280742051867 362.68888888888887 412.346140753852 366.26666666666665 410.3783629760742C369.84444444444443 408.4105851982964 368.8222222222222 384.3372518649631 372.4 385.23169630940754C375.97777777777776 386.126140753852 374.9555555555555 410.046140753852 378.5333333333333 413.4450296427409C382.1111111111111 416.8439185316298 381.0888888888889 399.96191853162975 384.6666666666667 396.8850296427409C388.2444444444444 393.808140753852 387.22222222222223 402.75258519829646 390.8 402.8956963094075C394.3777777777778 403.03880742051865 393.35555555555555 395.4079185316298 396.93333333333334 397.37569630940754C400.5111111111111 399.3434740871853 399.4888888888889 411.50280742051865 403.06666666666666 409.6423629760742C406.64444444444445 407.7819185316298 405.6222222222222 392.7143629760742 409.2 390.99702964274087C412.77777777777777 389.27969630940754 411.7555555555556 403.4323629760742 415.33333333333337 403.7543629760742C418.9111111111111 404.0763629760742 417.8888888888889 388.9168074205187 421.4666666666667 392.10102964274085C425.0444444444444 395.28525186496313 424.02222222222224 412.91858519829646 427.6 414.67169630940754C431.1777777777778 416.4248074205187 430.15555555555557 398.5410296427409 433.73333333333335 398.11169630940753C437.31111111111113 397.6823629760742 436.2888888888889 412.9492518649631 439.8666666666667 413.19969630940756C443.44444444444446 413.450140753852 444.2111111111111 403.12058519829645 446 398.9703629760742 " transform="rotate(15, 400, 400)"></path><path d="M365.5 401.3437779541016C366.8416666666667 399.1971112874349 367.4166666666667 392.10544462076825 370.1 393.9837779541016C372.7833333333333 395.8621112874349 372.01666666666665 409.2596112874349 374.7 407.78377795410154C377.3833333333333 406.30794462076824 376.6166666666667 388.25294462076823 379.3 388.9237779541016C381.98333333333335 389.5946112874349 381.2166666666667 407.5346112874349 383.9 410.08377795410155C386.58333333333337 412.6329446207682 385.81666666666666 399.97144462076824 388.5 397.66377795410153C391.18333333333334 395.3561112874349 390.4166666666667 402.0644446207682 393.1 402.1717779541016C395.7833333333333 402.2791112874349 395.01666666666665 396.55594462076823 397.7 398.0317779541016C400.3833333333333 399.5076112874349 399.6166666666667 408.6271112874349 402.3 407.2317779541016C404.98333333333335 405.83644462076825 404.2166666666667 394.53577795410155 406.9 393.2477779541016C409.58333333333337 391.9597779541016 408.81666666666666 402.57427795410155 411.5 402.8157779541016C414.18333333333334 403.05727795410155 413.41666666666663 391.6876112874349 416.1 394.07577795410157C418.7833333333333 396.46394462076825 418.01666666666665 409.6889446207682 420.7 411.00377795410157C423.3833333333333 412.3186112874349 422.6166666666667 398.90577795410155 425.3 398.58377795410155C427.98333333333335 398.26177795410155 427.2166666666667 409.71194462076824 429.9 409.8997779541016C432.5833333333333 410.0876112874349 433.1583333333333 402.3404446207682 434.5 399.22777795410155 " transform="rotate(11.25, 400, 400)"></path><path d="M377 400.8958481547038C377.89444444444445 399.46473704359266 378.27777777777777 394.7369592658149 380.06666666666666 395.9891814880371C381.85555555555555 397.2414037102593 381.34444444444443 406.173070376926 383.1333333333333 405.1891814880371C384.9222222222222 404.2052925991482 384.4111111111111 392.1686259324815 386.2 392.61584815470377C387.9888888888889 393.063070376926 387.47777777777776 405.023070376926 389.26666666666665 406.72251482137045C391.05555555555554 408.4219592658149 390.5444444444444 399.9809592658149 392.3333333333333 398.4425148213704C394.1222222222222 396.90407037692603 393.6111111111111 401.3762925991482 395.4 401.44784815470376C397.18888888888887 401.5194037102593 396.6777777777778 397.7039592658149 398.4666666666667 398.6878481547038C400.2555555555556 399.67173704359266 399.7444444444444 405.7514037102593 401.5333333333333 404.8211814880371C403.3222222222222 403.8909592658149 402.81111111111113 396.3571814880371 404.6 395.49851482137046C406.3888888888889 394.63984815470377 405.8777777777778 401.71618148803714 407.6666666666667 401.8771814880371C409.4555555555555 402.03818148803714 408.94444444444446 394.45840371025935 410.73333333333335 396.0505148213704C412.52222222222224 397.64262593248156 412.0111111111111 406.4592925991482 413.8 407.33584815470374C415.5888888888889 408.2124037102593 415.0777777777778 399.27051482137045 416.8666666666667 399.05584815470377C418.65555555555557 398.84118148803714 418.14444444444445 406.47462593248156 419.93333333333334 406.59984815470375C421.72222222222223 406.725070376926 422.10555555555555 401.5602925991482 423 399.48518148803714 " transform="rotate(7.5, 400, 400)"></path><path d="M388.5 400.4479297993978C388.9472222222222 399.73237424384223 389.1388888888889 397.36848535495335 390.0333333333333 397.9945964660644C390.9277777777778 398.62070757717555 390.6722222222222 403.0865409105089 391.56666666666666 402.59459646606444C392.4611111111111 402.10265202162 392.2055555555556 396.08431868828666 393.1 396.3079297993978C393.99444444444447 396.5315409105089 393.7388888888889 402.51154091050887 394.6333333333333 403.3612631327311C395.52777777777777 404.2109853549533 395.27222222222224 399.9904853549533 396.1666666666667 399.2212631327311C397.06111111111113 398.4520409105089 396.80555555555554 400.68815202162 397.7 400.72392979939775C398.59444444444443 400.75970757717556 398.3388888888889 398.85198535495334 399.23333333333335 399.34392979939776C400.1277777777778 399.8358742438422 399.8722222222222 402.87570757717555 400.76666666666665 402.4105964660645C401.6611111111111 401.94548535495335 401.40555555555557 398.17859646606445 402.3 397.74926313273113C403.19444444444446 397.31992979939776 402.93888888888887 400.85809646606447 403.8333333333333 400.93859646606444C404.72777777777776 401.01909646606447 404.47222222222223 397.22920757717554 405.3666666666667 398.02526313273114C406.2611111111111 398.8213186882867 406.0055555555556 403.22965202162004 406.9 403.66792979939777C407.7944444444445 404.10620757717555 407.5388888888889 399.6352631327311 408.43333333333334 399.5279297993978C409.3277777777778 399.42059646606447 409.0722222222222 403.2373186882867 409.9666666666667 403.2999297993978C410.8611111111111 403.36254091050887 411.0527777777778 400.78015202162 411.5 399.74259646606447 " transform="rotate(3.75, 400, 400)"></path></g></svg>