<svg xmlns="http://www.w3.org/2000/svg" version="1.1" xmlns:xlink="http://www.w3.org/1999/xlink" xmlns:svgjs="http://svgjs.dev/svgjs" viewBox="0 0 800 800" opacity="0.74"><defs><linearGradient x1="50%" y1="0%" x2="50%" y2="100%" id="wwwhirl-grad"><stop stop-color="hsl(190, 30%, 30%)" stop-opacity="1" offset="45%"></stop><stop stop-color="hsl(230, 55%, 50%)" stop-opacity="1" offset="100%"></stop></linearGradient></defs><g stroke-width="2" stroke="url(#wwwhirl-grad)" fill="none" stroke-linecap="round"><path d="M-62.5 519.1580268859864C-44.5138888888889 469.1566379970974 -36.80555555555556 380.4594157748752 -0.8333333333333428 347.724693552653C35.13888888888886 314.98997133043076 24.861111111111086 429.9469157748752 60.833333333333314 406.924693552653C96.80555555555554 383.9024713304308 86.5277777777778 251.524693552653 122.5 268.79136021931964C158.47222222222217 286.05802688598635 148.19444444444446 449.93719355265296 184.16666666666663 466.12469355265296C220.1388888888889 482.31219355265296 209.8611111111111 304.86636021931963 245.83333333333331 324.29136021931964C281.8055555555556 343.71636021931965 271.52777777777777 535.6024713304307 307.5 532.724693552653C343.47222222222223 529.8469157748752 333.1944444444444 337.087193552653 369.1666666666667 314.424693552653C405.1388888888889 291.762193552653 394.8611111111111 448.1899713304308 430.83333333333326 455.024693552653C466.80555555555554 461.8594157748753 456.5277777777777 320.95108244154187 492.5 337.8580268859863C528.4722222222222 354.76497133043074 518.1944444444445 509.7538602193197 554.1666666666666 512.9913602193196C590.1388888888888 516.2288602193197 579.8611111111112 375.937193552653 615.8333333333334 348.9580268859863C651.8055555555555 321.97886021931964 641.5277777777778 440.2760824415419 677.5 420.49136021931963C713.4722222222222 400.70663799709746 703.1944444444445 251.987193552653 739.1666666666666 281.124693552653C775.1388888888888 310.262193552653 764.8611111111112 494.85108244154185 800.8333333333334 520.3913602193197C836.8055555555555 545.9316379970974 844.5138888888888 412.93719355265296 862.5 368.6913602193197 " transform="rotate(138.75, 400, 400)"></path><path d="M-50 515.9375625610352C-32.5 467.2875625610351 -25 380.98756256103513 10 349.13756256103517C45 317.28756256103514 35 429.13756256103517 70 406.73756256103513C104.99999999999997 384.33756256103516 95.00000000000003 255.53756256103514 130 272.33756256103516C165 289.13756256103517 155 448.58756256103516 190 464.33756256103516C225.00000000000006 480.08756256103516 214.99999999999994 307.4375625610352 250 326.33756256103516C285.00000000000006 345.23756256103513 274.99999999999994 531.9375625610352 310 529.1375625610351C345 526.3375625610352 335 338.78756256103514 370 316.73756256103513C405 294.6875625610352 395 446.88756256103517 430 453.53756256103514C465 460.1875625610352 455 323.08756256103516 490 339.53756256103514C524.9999999999999 355.98756256103513 515.0000000000001 506.78756256103514 550 509.9375625610352C584.9999999999999 513.0875625610352 575.0000000000001 376.58756256103516 610 350.33756256103516C644.9999999999999 324.08756256103516 635.0000000000001 439.1875625610352 670 419.9375625610352C705 400.6875625610352 695 255.98756256103516 730 284.33756256103516C765 312.6875625610352 755 492.28756256103514 790 517.1375625610351C825 541.9875625610351 832.5 412.58756256103516 850 369.53756256103514 " transform="rotate(135, 400, 400)"></path><path d="M-37.5 512.7170829772949C-20.486111111111114 465.41847186618384 -13.194444444444443 381.515694088406 20.833333333333343 350.5504163106283C54.861111111111086 319.58513853285046 45.138888888888886 428.328194088406 79.16666666666669 406.5504163106283C113.19444444444443 384.77263853285046 103.47222222222223 259.55041631062824 137.5 275.8837496439616C171.52777777777771 292.2170829772949 161.80555555555557 447.2379163106283 195.83333333333337 462.5504163106283C229.86111111111114 477.8629163106283 220.13888888888886 310.0087496439616 254.16666666666669 328.3837496439616C288.19444444444446 346.7587496439616 278.47222222222223 528.2726385328506 312.5 525.5504163106283C346.5277777777778 522.828194088406 336.8055555555555 340.4879163106283 370.8333333333333 319.0504163106283C404.86111111111114 297.6129163106283 395.13888888888886 445.5851385328505 429.16666666666674 452.0504163106283C463.19444444444457 458.51569408840606 453.4722222222222 325.2240274217394 487.5 341.2170829772949C521.5277777777777 357.21013853285046 511.80555555555554 503.82124964396166 545.8333333333334 506.88374964396166C579.8611111111111 509.94624964396166 570.1388888888889 377.2379163106283 604.1666666666666 351.7170829772949C638.1944444444445 326.1962496439616 628.4722222222223 438.0990274217394 662.5 419.3837496439616C696.5277777777777 400.66847186618384 686.8055555555557 259.98791631062824 720.8333333333334 287.5504163106283C754.861111111111 315.1129163106283 745.138888888889 489.7240274217394 779.1666666666666 513.8837496439617C813.1944444444443 538.0434718661838 820.486111111111 412.2379163106283 837.5 370.3837496439616 " transform="rotate(131.25, 400, 400)"></path><path d="M-25 509.4966186523438C-8.472222222222229 463.54939643012153 -1.3888888888889 382.04384087456594 31.666666666666657 351.9632853190104C64.72222222222223 321.88272976345485 55.27777777777777 427.51884087456597 88.33333333333331 406.3632853190104C121.38888888888889 385.2077297634549 111.94444444444446 263.56328531901045 145 279.42995198567706C178.05555555555554 295.29661865234374 168.61111111111111 445.8882853190105 201.66666666666663 460.7632853190105C234.72222222222223 475.6382853190105 225.27777777777771 312.5799519856771 258.3333333333333 330.4299519856771C291.3888888888889 348.2799519856771 281.9444444444444 524.6077297634549 315 521.9632853190104C348.0555555555556 519.318840874566 338.6111111111111 342.18828531901045 371.6666666666667 321.3632853190104C404.72222222222223 300.5382853190104 395.27777777777777 444.2827297634549 428.3333333333333 450.56328531901045C461.3888888888889 456.843840874566 451.94444444444434 327.36050754123266 485 342.89661865234376C518.0555555555555 358.43272976345486 508.6111111111112 500.8549519856771 541.6666666666666 503.8299519856771C574.7222222222222 506.8049519856771 565.2777777777778 377.88828531901044 598.3333333333334 353.09661865234375C631.3888888888888 328.3049519856771 621.9444444444445 437.01050754123264 655 418.8299519856771C688.0555555555555 400.64939643012156 678.6111111111112 263.9882853190104 711.6666666666666 290.76328531901044C744.7222222222222 317.5382853190104 735.2777777777778 487.1605075412326 768.3333333333334 510.6299519856771C801.3888888888888 534.0993964301215 808.4722222222222 411.88828531901044 825 371.2299519856771 " transform="rotate(127.5, 400, 400)"></path><path d="M-12.5 506.27608566284187C3.541666666666657 461.68025232950845 10.416666666666657 382.5719189961751 42.5 353.3760856628418C74.58333333333331 324.18025232950845 65.41666666666666 426.70941899617515 97.5 406.17608566284184C129.58333333333331 385.6427523295085 120.41666666666669 267.5760856628418 152.5 282.9760856628418C184.58333333333334 298.3760856628418 175.41666666666666 444.5385856628418 207.5 458.9760856628418C239.58333333333337 473.4135856628418 230.41666666666663 315.1510856628418 262.5 332.4760856628418C294.58333333333337 349.8010856628418 285.41666666666663 520.9427523295085 317.5 518.3760856628419C349.5833333333333 515.8094189961752 340.4166666666667 343.8885856628418 372.5 323.6760856628418C404.5833333333333 303.4635856628418 395.4166666666667 442.9802523295085 427.5 449.0760856628418C459.58333333333326 455.1719189961751 450.41666666666674 329.49691899617517 482.5 344.5760856628418C514.5833333333333 359.65525232950847 505.41666666666674 497.8885856628418 537.5 500.77608566284187C569.5833333333333 503.6635856628418 560.4166666666667 378.5385856628418 592.5 354.4760856628418C624.5833333333333 330.4135856628418 615.4166666666667 435.9219189961751 647.5 418.2760856628418C679.5833333333333 400.6302523295085 670.4166666666667 267.9885856628418 702.5 293.9760856628418C734.5833333333334 319.9635856628418 725.4166666666666 484.59691899617513 757.5 507.37608566284183C789.5833333333334 530.1552523295085 796.4583333333334 411.5385856628418 812.5 372.0760856628418 " transform="rotate(123.75, 400, 400)"></path><path d="M0 503.05561370849614C15.555555555555543 459.8111692640516 22.222222222222214 383.1000581529405 53.33333333333334 354.78894704182943C84.44444444444446 326.47783593071836 75.55555555555556 425.9000581529406 106.66666666666669 405.9889470418294C137.77777777777777 386.0778359307183 128.88888888888889 271.58894704182944 160 286.5222803751628C191.1111111111111 301.4556137084961 182.22222222222226 443.18894704182946 213.33333333333337 457.18894704182946C244.44444444444446 471.18894704182946 235.55555555555554 317.72228037516277 266.6666666666667 334.5222803751628C297.77777777777777 351.3222803751628 288.88888888888886 517.2778359307183 320 514.7889470418295C351.11111111111114 512.3000581529406 342.22222222222223 345.58894704182944 373.3333333333333 325.9889470418294C404.4444444444445 306.3889470418294 395.5555555555555 441.67783593071835 426.6666666666667 447.58894704182944C457.7777777777778 453.5000581529406 448.88888888888886 331.63339148627387 480 346.25561370849607C511.1111111111111 360.87783593071833 502.2222222222222 494.9222803751628 533.3333333333334 497.72228037516277C564.4444444444445 500.52228037516284 555.5555555555555 379.18894704182946 586.6666666666666 355.8556137084961C617.7777777777777 332.5222803751628 608.8888888888889 434.83339148627385 640 417.72228037516277C671.1111111111111 400.6111692640517 662.2222222222223 271.9889470418294 693.3333333333334 297.18894704182946C724.4444444444443 322.38894704182945 715.5555555555557 482.0333914862739 746.6666666666666 504.1222803751628C777.7777777777777 526.2111692640517 784.4444444444443 411.18894704182946 800 372.92228037516276 " transform="rotate(120, 400, 400)"></path><path d="M12.5 499.83510360717776C27.569444444444443 457.9420480516222 34.02777777777777 383.62815916273325 64.16666666666666 356.20177027384443C94.30555555555554 328.7753813849555 85.69444444444444 425.0906591627333 115.83333333333331 405.8017702738444C145.9722222222222 386.51288138495556 137.36111111111114 275.6017702738444 167.5 290.06843694051105C197.63888888888889 304.53510360717775 189.0277777777778 441.8392702738445 219.16666666666663 455.4017702738445C249.30555555555554 468.9642702738445 240.69444444444446 320.29343694051107 270.8333333333333 336.5684369405111C300.97222222222223 352.8434369405111 292.3611111111111 513.6128813849556 322.5 511.20177027384443C352.6388888888889 508.79065916273333 344.02777777777777 347.2892702738444 374.1666666666667 328.3017702738444C404.3055555555556 309.3142702738444 395.6944444444444 440.3753813849555 425.8333333333333 446.1017702738444C455.97222222222223 451.8281591627333 447.3611111111111 333.76982582939996 477.5 347.9351036071777C507.6388888888889 362.10038138495554 499.0277777777778 491.9559369405111 529.1666666666666 494.6684369405111C559.3055555555555 497.3809369405111 550.6944444444445 379.8392702738444 580.8333333333334 357.23510360717773C610.9722222222222 334.6309369405111 602.3611111111112 433.7448258294 632.5 417.16843694051107C662.6388888888888 400.5920480516222 654.0277777777778 275.9892702738444 684.1666666666666 300.4017702738444C714.3055555555555 324.8142702738444 705.6944444444445 479.46982582939995 735.8333333333334 500.86843694051106C765.9722222222222 522.2670480516222 772.4305555555555 410.8392702738444 787.5 373.7684369405111 " transform="rotate(116.25, 400, 400)"></path><path d="M25 496.61461639404297C39.58333333333333 456.07294972737634 45.83333333333333 384.15628306070965 75 357.61461639404297C104.16666666666666 331.07294972737634 95.83333333333333 424.2812830607096 125 405.61461639404297C154.16666666666666 386.94794972737634 145.83333333333331 279.61461639404297 175 293.61461639404297C204.16666666666666 307.61461639404297 195.83333333333334 440.48961639404297 225 453.61461639404297C254.16666666666663 466.73961639404297 245.83333333333337 322.86461639404297 275 338.61461639404297C304.1666666666667 354.36461639404297 295.8333333333333 509.94794972737634 325 507.61461639404297C354.1666666666667 505.2812830607097 345.8333333333333 348.98961639404297 375 330.61461639404297C404.1666666666667 312.23961639404297 395.8333333333333 439.07294972737634 425 444.61461639404297C454.1666666666667 450.1562830607097 445.8333333333333 335.90628306070965 475 349.61461639404297C504.16666666666674 363.32294972737634 495.83333333333326 488.98961639404297 525 491.61461639404297C554.1666666666666 494.23961639404297 545.8333333333334 380.48961639404297 575 358.61461639404297C604.1666666666666 336.73961639404297 595.8333333333334 432.65628306070965 625 416.61461639404297C654.1666666666666 400.57294972737634 645.8333333333334 279.98961639404297 675 303.61461639404297C704.1666666666666 327.23961639404297 695.8333333333334 476.9062830607096 725 497.61461639404297C754.1666666666666 518.3229497273763 760.4166666666666 410.48961639404297 775 374.61461639404297 " transform="rotate(112.5, 400, 400)"></path><path d="M37.5 493.39413681030277C51.597222222222214 454.203859032525 57.638888888888886 384.68441458808053 85.83333333333334 359.0274701436361C114.02777777777777 333.3705256991916 105.97222222222221 423.4719145880805 134.16666666666669 405.42747014363607C162.3611111111111 387.38302569919165 154.30555555555554 283.62747014363606 182.5 297.1608034769694C210.69444444444443 310.6941368103027 202.63888888888889 439.1399701436361 230.83333333333334 451.8274701436361C259.0277777777778 464.5149701436361 250.97222222222217 325.4358034769694 279.16666666666663 340.6608034769694C307.36111111111114 355.8858034769694 299.30555555555554 506.2830256991916 327.5 504.0274701436361C355.69444444444446 501.77191458808056 347.63888888888886 350.68997014363606 375.8333333333333 332.92747014363607C404.0277777777778 315.1649701436361 395.9722222222222 437.7705256991917 424.1666666666667 443.12747014363606C452.36111111111114 448.48441458808054 444.3055555555555 338.0427479214139 472.5 351.29413681030275C500.69444444444434 364.5455256991916 492.6388888888889 486.02330347696943 520.8333333333333 488.56080347696945C549.0277777777778 491.0983034769695 540.9722222222222 381.1399701436361 569.1666666666666 359.99413681030273C597.3611111111111 338.8483034769694 589.3055555555555 431.56774792141385 617.5 416.0608034769694C645.6944444444445 400.553859032525 637.6388888888889 283.98997014363607 665.8333333333334 306.8274701436361C694.0277777777777 329.6649701436361 685.9722222222223 474.34274792141383 714.1666666666666 494.3608034769694C742.361111111111 514.378859032525 748.4027777777777 410.1399701436361 762.5 375.46080347696943 " transform="rotate(108.75, 400, 400)"></path><path d="M50 490.17364196777345C63.61111111111111 452.33475307888455 69.44444444444444 385.2125308566623 96.66666666666666 360.4403086344401C123.88888888888887 335.6680864122179 116.1111111111111 422.66253085666233 143.33333333333331 405.2403086344401C170.55555555555554 387.8180864122179 162.77777777777777 287.6403086344401 190 300.70697530110675C217.2222222222222 313.7736419677734 209.44444444444446 437.79030863444007 236.66666666666666 450.04030863444007C263.8888888888889 462.29030863444007 256.1111111111111 328.00697530110676 283.33333333333337 342.70697530110675C310.5555555555556 357.40697530110674 302.7777777777777 502.61808641221785 330 500.4403086344401C357.22222222222223 498.26253085666235 349.4444444444444 352.3903086344401 376.6666666666667 335.2403086344401C403.8888888888889 318.09030863444013 396.1111111111111 436.4680864122179 423.3333333333333 441.6403086344401C450.5555555555556 446.8125308566623 442.77777777777777 340.179197523329 470 352.97364196777346C497.2222222222222 365.7680864122179 489.4444444444445 483.0569753011068 516.6666666666667 485.50697530110676C543.8888888888889 487.9569753011068 536.1111111111111 381.7903086344401 563.3333333333334 361.37364196777344C590.5555555555555 340.95697530110675 582.7777777777778 430.47919752332893 610 415.50697530110676C637.2222222222222 400.5347530788846 629.4444444444445 287.9903086344401 656.6666666666666 310.0403086344401C683.8888888888888 332.09030863444013 676.1111111111112 471.779197523329 703.3333333333334 491.1069753011068C730.5555555555555 510.43475307888457 736.3888888888888 409.7903086344401 750 376.3069753011068 " transform="rotate(105, 400, 400)"></path><path d="M62.5 486.95314712524413C75.625 450.4656471252441 81.25 385.7406471252441 107.5 361.85314712524416C133.75 337.9656471252441 126.25 421.8531471252441 152.5 405.05314712524415C178.75 388.25314712524414 171.25 291.6531471252441 197.5 304.25314712524414C223.75 316.85314712524416 216.25 436.44064712524414 242.5 448.25314712524414C268.75 460.06564712524414 261.25 330.57814712524413 287.5 344.75314712524414C313.75 358.92814712524415 306.25 498.95314712524413 332.5 496.85314712524416C358.75 494.75314712524414 351.25 354.0906471252441 377.5 337.55314712524415C403.75 321.01564712524413 396.25 435.16564712524416 422.5 440.1531471252441C448.75 445.1406471252442 441.25 342.31564712524414 467.5 354.6531471252441C493.75 366.99064712524415 486.25 480.0906471252441 512.5 482.45314712524413C538.75 484.81564712524414 531.25 382.44064712524414 557.5 362.75314712524414C583.75 343.06564712524414 576.25 429.39064712524413 602.5 414.95314712524413C628.75 400.5156471252442 621.25 291.99064712524415 647.5 313.25314712524414C673.75 334.51564712524413 666.25 469.2156471252441 692.5 487.85314712524416C718.75 506.49064712524415 724.375 409.44064712524414 737.5 377.1531471252441 " transform="rotate(101.25, 400, 400)"></path><path d="M75 483.7326599121094C87.63888888888889 448.5965488009982 93.05555555555556 386.2687710232205 118.33333333333334 363.2659932454427C143.6111111111111 340.2632154676649 136.38888888888889 421.0437710232205 161.66666666666669 404.8659932454427C186.94444444444446 388.6882154676649 179.72222222222223 295.6659932454427 205 307.79932657877606C230.27777777777777 319.9326599121094 223.05555555555557 435.09099324544275 248.33333333333334 446.46599324544275C273.6111111111111 457.84099324544275 266.3888888888889 333.149326578776 291.66666666666663 346.79932657877606C316.94444444444446 360.44932657877604 309.7222222222222 495.28821546766494 335 493.2659932454427C360.27777777777777 491.24377102322046 353.05555555555554 355.7909932454427 378.3333333333333 339.8659932454427C403.61111111111114 323.9409932454427 396.38888888888886 433.86321546766493 421.6666666666667 438.6659932454427C446.9444444444445 443.4687710232205 439.7222222222222 344.45210435655383 465 356.33265991210936C490.27777777777777 368.21321546766495 483.0555555555556 477.12432657877605 508.3333333333333 479.399326578776C533.6111111111111 481.674326578776 526.3888888888889 383.0909932454427 551.6666666666667 364.1326599121094C576.9444444444443 345.17432657877606 569.7222222222222 428.30210435655385 595 414.399326578776C620.2777777777777 400.49654880099826 613.0555555555555 295.9909932454427 638.3333333333334 316.4659932454427C663.6111111111111 336.9409932454427 656.3888888888889 466.6521043565538 681.6666666666666 484.5993265787761C706.9444444444445 502.54654880099827 712.3611111111111 409.0909932454427 725 377.99932657877605 " transform="rotate(97.5, 400, 400)"></path><path d="M87.5 480.5121726989746C99.65277777777777 446.7274504767524 104.86111111111111 386.79689492119684 129.16666666666666 364.6788393656413C153.47222222222223 342.5607838100857 146.52777777777777 420.23439492119684 170.83333333333331 404.6788393656413C195.13888888888886 389.1232838100857 188.19444444444446 299.6788393656413 212.5 311.3455060323079C236.80555555555554 323.0121726989746 229.86111111111111 433.7413393656413 254.16666666666666 444.67883936564124C278.4722222222223 455.61633936564124 271.5277777777777 335.7205060323079 295.83333333333337 348.8455060323079C320.1388888888889 361.9705060323079 313.19444444444446 491.6232838100857 337.5 489.67883936564124C361.8055555555556 487.73439492119684 354.8611111111111 357.4913393656413 379.1666666666667 342.1788393656413C403.47222222222223 326.8663393656413 396.52777777777777 432.5607838100857 420.8333333333333 437.1788393656413C445.1388888888889 441.79689492119684 438.1944444444444 346.5885615878635 462.5 358.0121726989746C486.8055555555555 369.4357838100857 479.86111111111114 474.158006032308 504.1666666666667 476.345506032308C528.4722222222222 478.533006032308 521.5277777777778 383.7413393656413 545.8333333333333 365.5121726989746C570.1388888888889 347.2830060323079 563.1944444444446 427.2135615878635 587.5 413.8455060323079C611.8055555555555 400.4774504767524 604.8611111111112 299.9913393656413 629.1666666666666 319.6788393656413C653.4722222222222 339.3663393656413 646.5277777777778 464.0885615878635 670.8333333333334 481.345506032308C695.1388888888888 498.6024504767524 700.3472222222222 408.7413393656413 712.5 378.8455060323079 " transform="rotate(93.75, 400, 400)"></path><path d="M100 477.2917236328125C111.66666666666666 444.85839029947914 116.66666666666666 387.32505696614584 140 366.0917236328125C163.33333333333331 344.8583902994792 156.66666666666666 419.4250569661458 180 404.4917236328125C203.33333333333331 389.5583902994792 196.66666666666669 303.6917236328125 220 314.8917236328125C243.33333333333334 326.0917236328125 236.66666666666666 432.3917236328125 260 442.8917236328125C283.33333333333337 453.3917236328125 276.66666666666663 338.2917236328125 300 350.8917236328125C323.33333333333337 363.4917236328125 316.66666666666663 487.95839029947916 340 486.0917236328125C363.3333333333333 484.22505696614587 356.6666666666667 359.1917236328125 380 344.4917236328125C403.3333333333333 329.7917236328125 396.6666666666667 431.2583902994792 420 435.6917236328125C443.3333333333333 440.12505696614585 436.6666666666667 348.7250569661458 460 359.6917236328125C483.3333333333333 370.65839029947915 476.6666666666667 471.1917236328125 500 473.2917236328125C523.3333333333333 475.3917236328125 516.6666666666667 384.3917236328125 540 366.8917236328125C563.3333333333333 349.3917236328125 556.6666666666667 426.12505696614585 580 413.2917236328125C603.3333333333333 400.45839029947916 596.6666666666667 303.9917236328125 620 322.8917236328125C643.3333333333334 341.7917236328125 636.6666666666666 461.5250569661458 660 478.0917236328125C683.3333333333334 494.65839029947915 688.3333333333334 408.3917236328125 700 379.6917236328125 " transform="rotate(90, 400, 400)"></path><path d="M112.5 474.0712059020996C123.68055555555554 442.9892614576552 128.47222222222223 387.85315034654406 150.83333333333334 367.50453923543296C173.19444444444443 347.1559281243218 166.80555555555554 418.61565034654404 189.16666666666669 404.3045392354329C211.52777777777777 389.99342812432184 205.1388888888889 307.70453923543295 227.5 318.4378725687663C249.86111111111111 329.1712059020996 243.47222222222223 431.0420392354329 265.83333333333337 441.1045392354329C288.19444444444446 451.167039235433 281.80555555555554 340.8628725687663 304.16666666666663 352.9378725687663C326.5277777777778 365.0128725687663 320.1388888888889 484.29342812432185 342.5 482.50453923543296C364.8611111111111 480.71565034654407 358.4722222222222 360.89203923543295 380.8333333333333 346.8045392354329C403.19444444444446 332.71703923543294 396.80555555555554 429.9559281243218 419.1666666666667 434.20453923543295C441.52777777777777 438.4531503465441 435.13888888888886 350.8614836798774 457.5 361.37120590209963C479.8611111111111 371.8809281243218 473.47222222222223 468.22537256876626 495.8333333333333 470.2378725687663C518.1944444444443 472.25037256876624 511.8055555555556 385.0420392354329 534.1666666666667 368.2712059020996C556.5277777777778 351.5003725687663 550.1388888888889 425.0364836798774 572.5 412.7378725687663C594.8611111111111 400.43926145765516 588.4722222222222 307.9920392354329 610.8333333333333 326.1045392354329C633.1944444444445 344.21703923543294 626.8055555555555 458.96148367987735 649.1666666666666 474.8378725687663C671.5277777777777 490.7142614576552 676.3194444444445 408.0420392354329 687.5 380.53787256876626 " transform="rotate(86.25, 400, 400)"></path><path d="M125 470.8507339477539C135.69444444444446 441.12017839219834 140.27777777777777 388.38128950330946 161.66666666666666 368.91740061442056C183.05555555555554 349.4535117255317 176.94444444444443 417.8062895033095 198.33333333333331 404.1174006144206C219.72222222222223 390.4285117255317 213.61111111111114 311.71740061442057 235 321.9840672810872C256.3888888888889 332.25073394775393 250.27777777777777 429.6924006144206 271.66666666666663 439.3174006144206C293.05555555555554 448.9424006144206 286.94444444444446 343.4340672810872 308.33333333333337 354.9840672810872C329.7222222222223 366.53406728108723 323.6111111111111 480.62851172553167 345 478.91740061442056C366.3888888888889 477.20628950330945 360.2777777777777 362.59240061442057 381.6666666666667 349.1174006144206C403.0555555555556 335.6424006144206 396.9444444444444 428.6535117255317 418.3333333333333 432.71740061442057C439.72222222222223 436.7812895033095 433.6111111111111 352.99795616997613 455 363.0507339477539C476.38888888888886 373.1035117255317 470.27777777777777 465.25906728108725 491.6666666666667 467.1840672810872C513.0555555555554 469.1090672810873 506.9444444444445 385.6924006144206 528.3333333333333 369.6507339477539C549.7222222222222 353.6090672810872 543.6111111111111 423.9479561699761 565 412.1840672810872C586.3888888888889 400.42017839219835 580.2777777777778 311.9924006144206 601.6666666666667 329.3174006144206C623.0555555555554 346.6424006144206 616.9444444444446 456.39795616997617 638.3333333333334 471.58406728108724C659.7222222222222 486.7701783921983 664.3055555555555 407.6924006144206 675 381.38406728108725 " transform="rotate(82.5, 400, 400)"></path><path d="M137.5 467.63024673461916C147.70833333333331 439.25108006795244 152.08333333333331 388.9094134012858 172.5 370.33024673461915C192.91666666666666 351.75108006795244 187.08333333333334 416.99691340128584 207.5 403.9302467346191C227.91666666666669 390.8635800679525 222.08333333333334 315.73024673461913 242.5 325.53024673461914C262.9166666666667 335.33024673461915 257.0833333333333 428.34274673461914 277.5 437.53024673461914C297.9166666666667 446.71774673461914 292.0833333333333 346.00524673461916 312.5 357.03024673461914C332.91666666666663 368.0552467346191 327.08333333333337 476.9635800679525 347.5 475.33024673461915C367.91666666666663 473.6969134012858 362.08333333333337 364.29274673461913 382.5 351.4302467346191C402.9166666666667 338.56774673461916 397.0833333333333 427.35108006795247 417.5 431.23024673461913C437.9166666666667 435.1094134012858 432.0833333333333 355.1344134012858 452.5 364.73024673461913C472.91666666666663 374.3260800679525 467.08333333333337 462.29274673461913 487.5 464.13024673461916C507.9166666666667 465.96774673461914 502.0833333333333 386.34274673461914 522.5 371.03024673461914C542.9166666666667 355.71774673461914 537.0833333333333 422.8594134012858 557.5 411.63024673461916C577.9166666666667 400.4010800679525 572.0833333333333 315.9927467346191 592.5 332.53024673461914C612.9166666666667 349.06774673461916 607.0833333333333 453.8344134012858 627.5 468.33024673461915C647.9166666666667 482.8260800679525 652.2916666666666 407.34274673461914 662.5 382.23024673461913 " transform="rotate(78.75, 400, 400)"></path><path d="M150 464.4097671508789C159.72222222222223 437.3819893731011 163.88888888888889 389.4375449286567 183.33333333333334 371.7431004842122C202.77777777777777 354.0486560397678 197.22222222222223 416.1875449286567 216.66666666666669 403.7431004842122C236.1111111111111 391.2986560397678 230.55555555555554 319.7431004842122 250 329.0764338175456C269.44444444444446 338.4097671508789 263.8888888888889 426.9931004842122 283.33333333333337 435.7431004842122C302.7777777777778 444.4931004842122 297.2222222222222 348.5764338175456 316.66666666666663 359.0764338175456C336.1111111111111 369.5764338175456 330.55555555555554 473.2986560397678 350 471.7431004842123C369.44444444444446 470.18754492865673 363.8888888888889 365.9931004842122 383.33333333333337 353.7431004842122C402.7777777777778 341.4931004842122 397.2222222222222 426.0486560397678 416.6666666666667 429.7431004842122C436.11111111111114 433.43754492865673 430.55555555555554 357.27087826199 450 366.4097671508789C469.4444444444444 375.5486560397678 463.8888888888889 459.32643381754554 483.3333333333333 461.07643381754554C502.77777777777777 462.82643381754554 497.22222222222223 386.9931004842122 516.6666666666667 372.4097671508789C536.1111111111111 357.8264338175456 530.5555555555557 421.77087826199 550 411.0764338175456C569.4444444444443 400.38198937310113 563.8888888888889 319.9931004842122 583.3333333333333 335.7431004842122C602.7777777777778 351.4931004842122 597.2222222222222 451.27087826199 616.6666666666667 465.07643381754554C636.1111111111111 478.88198937310113 640.2777777777778 406.9931004842122 650 383.0764338175456 " transform="rotate(75, 400, 400)"></path><path d="M162.5 461.18924179077146C171.73611111111111 435.5128529018826 175.69444444444446 389.96563067966036 194.16666666666669 373.15590845743816C212.63888888888889 356.3461862352159 207.36111111111111 415.3781306796604 225.83333333333334 403.55590845743814C244.30555555555554 391.73368623521594 239.02777777777777 323.7559084574382 257.5 332.6225751241048C275.97222222222223 341.4892417907715 270.69444444444446 425.64340845743817 289.1666666666667 433.95590845743817C307.6388888888889 442.26840845743817 302.3611111111111 351.14757512410483 320.83333333333337 361.1225751241048C339.30555555555554 371.0975751241048 334.02777777777777 469.6336862352159 352.5 468.15590845743816C370.9722222222223 466.6781306796604 365.69444444444446 367.6934084574382 384.16666666666663 356.05590845743814C402.6388888888889 344.41840845743815 397.3611111111111 424.74618623521593 415.83333333333337 428.2559084574382C434.3055555555556 431.7656306796604 429.02777777777777 359.407297346327 447.5 368.0892417907715C465.97222222222223 376.7711862352159 460.69444444444446 456.3600751241048 479.1666666666667 458.02257512410483C497.63888888888886 459.6850751241048 492.36111111111114 387.64340845743817 510.8333333333333 373.7892417907715C529.3055555555554 359.9350751241048 524.0277777777778 420.682297346327 542.5 410.52257512410483C560.9722222222222 400.3628529018826 555.6944444444446 323.99340845743814 574.1666666666667 338.95590845743817C592.6388888888889 353.91840845743815 587.3611111111111 448.70729734632704 605.8333333333333 461.8225751241048C624.3055555555554 474.9378529018826 628.2638888888889 406.64340845743817 637.5 383.9225751241048 " transform="rotate(71.25, 400, 400)"></path><path d="M175 457.9687698364258C183.75 433.64376983642575 187.5 390.49376983642577 205 374.56876983642576C222.5 358.6437698364258 217.5 414.56876983642576 235 403.36876983642577C252.5 392.1687698364258 247.5 327.7687698364258 265 336.1687698364258C282.5 344.56876983642576 277.5 424.2937698364258 295 432.1687698364258C312.5 440.0437698364258 307.5 353.7187698364258 325 363.1687698364258C342.5 372.61876983642577 337.5 465.9687698364258 355 464.56876983642576C372.5 463.1687698364258 367.5 369.3937698364258 385 358.36876983642577C402.5 347.3437698364258 397.5 423.44376983642576 415 426.7687698364258C432.5 430.0937698364258 427.5 361.5437698364258 445 369.7687698364258C462.49999999999994 377.99376983642577 457.50000000000006 453.3937698364258 475 454.9687698364258C492.49999999999994 456.5437698364258 487.50000000000006 388.2937698364258 505 375.1687698364258C522.5 362.0437698364258 517.5 419.5937698364258 535 409.9687698364258C552.5 400.3437698364258 547.5 327.99376983642577 565 342.1687698364258C582.5 356.3437698364258 577.5 446.1437698364258 595 458.56876983642576C612.5 470.99376983642577 616.25 406.2937698364258 625 384.7687698364258 " transform="rotate(67.5, 400, 400)"></path><path d="M187.5 454.7482864379883C195.76388888888889 431.7746753268772 199.30555555555554 391.0218975490994 215.83333333333331 375.9816197713216C232.36111111111111 360.94134199354386 227.63888888888889 413.7593975490994 244.16666666666666 403.1816197713216C260.69444444444446 392.6038419935438 255.97222222222223 331.78161977132163 272.5 339.71495310465497C289.02777777777777 347.6482864379883 284.30555555555554 422.94411977132165 300.8333333333333 430.38161977132165C317.3611111111111 437.81911977132165 312.63888888888886 356.28995310465496 329.16666666666663 365.21495310465497C345.69444444444446 374.139953104655 340.9722222222222 462.30384199354387 357.5 460.9816197713216C374.0277777777778 459.6593975490994 369.30555555555554 371.09411977132163 385.83333333333337 360.6816197713216C402.3611111111111 350.2691197713216 397.6388888888889 422.14134199354385 414.16666666666663 425.28161977132163C430.69444444444446 428.4218975490994 425.9722222222222 363.68023088243274 442.5 371.44828643798826C459.02777777777777 379.21634199354384 454.3055555555556 450.42745310465494 470.8333333333333 451.91495310465496C487.3611111111111 453.40245310465497 482.6388888888889 388.94411977132165 499.1666666666667 376.5482864379883C515.6944444444443 364.15245310465497 510.97222222222223 418.5052308824327 527.5 409.41495310465496C544.0277777777778 400.3246753268772 539.3055555555557 331.9941197713216 555.8333333333333 345.3816197713216C572.3611111111111 358.7691197713216 567.6388888888889 443.5802308824327 584.1666666666667 455.31495310465493C600.6944444444443 467.04967532687715 604.2361111111111 405.94411977132165 612.5 385.61495310465494 " transform="rotate(63.75, 400, 400)"></path><path d="M200 451.5278030395508C207.77777777777777 429.90558081732854 211.11111111111111 391.550025261773 226.66666666666669 377.3944697062175C242.22222222222223 363.2389141506619 237.77777777777777 412.950025261773 253.33333333333334 402.99446970621744C268.8888888888889 393.0389141506619 264.44444444444446 335.79446970621746 280 343.2611363728841C295.55555555555554 350.7278030395508 291.11111111111114 421.59446970621747 306.6666666666667 428.59446970621747C322.22222222222223 435.59446970621747 317.77777777777777 358.8611363728841 333.33333333333337 367.26113637288415C348.8888888888889 375.66113637288413 344.44444444444446 458.6389141506619 360 457.3944697062175C375.55555555555554 456.150025261773 371.1111111111111 372.79446970621746 386.66666666666663 362.99446970621744C402.2222222222223 353.19446970621743 397.7777777777777 420.83891415066194 413.33333333333337 423.79446970621746C428.8888888888889 426.75002526177303 424.44444444444446 365.8166919284397 440 373.12780303955077C455.55555555555554 380.4389141506619 451.1111111111111 447.46113637288414 466.6666666666667 448.8611363728841C482.22222222222223 450.26113637288415 477.77777777777777 389.59446970621747 493.3333333333333 377.9278030395508C508.88888888888886 366.26113637288415 504.44444444444446 417.41669192843966 520 408.8611363728841C535.5555555555555 400.3055808173286 531.1111111111111 335.99446970621744 546.6666666666667 348.59446970621747C562.2222222222222 361.19446970621743 557.7777777777778 441.0166919284397 573.3333333333333 452.0611363728841C588.8888888888889 463.1055808173286 592.2222222222222 405.59446970621747 600 386.46113637288414 " transform="rotate(60, 400, 400)"></path><path d="M212.5 448.3073043823242C219.79166666666666 428.0364710489909 222.91666666666666 392.07813771565753 237.5 378.8073043823242C252.08333333333331 365.5364710489909 247.91666666666666 412.14063771565753 262.5 402.8073043823242C277.0833333333333 393.4739710489909 272.91666666666663 339.8073043823242 287.5 346.8073043823242C302.0833333333333 353.8073043823242 297.9166666666667 420.2448043823242 312.5 426.8073043823242C327.0833333333333 433.3698043823242 322.9166666666667 361.4323043823242 337.5 369.3073043823242C352.08333333333337 377.1823043823242 347.91666666666663 454.9739710489909 362.5 453.8073043823242C377.08333333333337 452.6406377156576 372.91666666666663 374.4948043823242 387.5 365.3073043823242C402.08333333333337 356.1198043823242 397.91666666666663 419.5364710489909 412.5 422.3073043823242C427.08333333333337 425.0781377156576 422.91666666666663 367.9531377156576 437.5 374.8073043823242C452.08333333333337 381.6614710489909 447.91666666666663 444.4948043823242 462.5 445.8073043823242C477.0833333333333 447.1198043823242 472.9166666666667 390.2448043823242 487.5 379.3073043823242C502.0833333333333 368.3698043823242 497.9166666666667 416.3281377156576 512.5 408.3073043823242C527.0833333333333 400.2864710489909 522.9166666666667 339.9948043823242 537.5 351.8073043823242C552.0833333333333 363.6198043823242 547.9166666666667 438.45313771565753 562.5 448.8073043823242C577.0833333333333 459.1614710489909 580.2083333333333 405.2448043823242 587.5 387.3073043823242 " transform="rotate(56.25, 400, 400)"></path><path d="M225 445.08683624267576C231.80555555555554 426.16739179823134 234.72222222222223 392.6062806871202 248.33333333333331 380.2201695760091C261.94444444444446 367.834058464898 258.05555555555554 411.3312806871202 271.66666666666663 402.6201695760091C285.27777777777777 393.909058464898 281.3888888888889 343.8201695760091 295 350.35350290934247C308.6111111111111 356.88683624267577 304.72222222222223 418.8951695760091 318.3333333333333 425.0201695760091C331.94444444444446 431.1451695760091 328.05555555555554 364.00350290934244 341.6666666666667 371.35350290934247C355.2777777777778 378.70350290934243 351.38888888888886 451.309058464898 365 450.2201695760091C378.6111111111111 449.13128068712024 374.7222222222222 376.1951695760091 388.33333333333337 367.6201695760091C401.94444444444446 359.04516957600913 398.05555555555554 418.234058464898 411.66666666666663 420.8201695760091C425.2777777777778 423.4062806871202 421.3888888888889 370.08961402045355 435 376.4868362426758C448.6111111111111 382.884058464898 444.7222222222223 441.5285029093425 458.33333333333337 442.75350290934244C471.94444444444446 443.97850290934247 468.05555555555554 390.8951695760091 481.6666666666667 380.6868362426758C495.27777777777777 370.47850290934247 491.3888888888889 415.23961402045353 505 407.75350290934244C518.6111111111111 400.26739179823136 514.7222222222222 343.9951695760091 528.3333333333333 355.0201695760091C541.9444444444443 366.04516957600913 538.0555555555557 435.88961402045356 551.6666666666667 445.55350290934246C565.2777777777778 455.21739179823135 568.1944444444443 404.8951695760091 575 388.1535029093425 " transform="rotate(52.5, 400, 400)"></path><path d="M237.5 441.866349029541C243.81944444444446 424.29829347398544 246.52777777777777 393.13440458509655 259.1666666666667 381.6330156962077C271.80555555555554 370.1316268073188 268.19444444444446 410.5219045850966 280.83333333333337 402.4330156962077C293.47222222222223 394.3441268073188 289.8611111111111 347.83301569620767 302.5 353.89968236287433C315.1388888888889 359.966349029541 311.52777777777777 417.5455156962077 324.1666666666667 423.2330156962077C336.80555555555554 428.9205156962077 333.19444444444446 366.57468236287434 345.8333333333333 373.39968236287433C358.47222222222223 380.2246823628743 354.8611111111111 447.6441268073188 367.5 446.6330156962077C380.1388888888889 445.62190458509656 376.52777777777777 377.89551569620767 389.16666666666663 369.9330156962077C401.80555555555554 361.9705156962077 398.19444444444446 416.9316268073188 410.83333333333337 419.33301569620767C423.4722222222223 421.73440458509657 419.8611111111111 372.22607125176324 432.5 378.16634902954104C445.1388888888889 384.1066268073188 441.5277777777778 438.56218236287435 454.16666666666663 439.69968236287434C466.80555555555554 440.83718236287433 463.19444444444446 391.5455156962077 475.83333333333337 382.066349029541C488.4722222222222 372.58718236287433 484.8611111111111 414.15107125176326 497.5 407.19968236287434C510.13888888888886 400.2482934739855 506.52777777777777 347.9955156962077 519.1666666666667 358.2330156962077C531.8055555555555 368.4705156962077 528.1944444444445 433.3260712517632 540.8333333333333 442.29968236287436C553.4722222222222 451.27329347398546 556.1805555555555 404.5455156962077 562.5 388.99968236287435 " transform="rotate(48.75, 400, 400)"></path><path d="M250 438.64585037231444C255.83333333333331 422.4291837056478 258.3333333333333 393.6625170389811 270 383.0458503723145C281.66666666666663 372.4291837056478 278.3333333333333 409.7125170389811 290 402.24585037231446C301.66666666666663 394.77918370564777 298.33333333333337 351.84585037231443 310 357.44585037231445C321.6666666666667 363.0458503723145 318.3333333333333 416.19585037231445 330 421.44585037231445C341.6666666666667 426.69585037231445 338.3333333333333 369.14585037231444 350 375.44585037231445C361.6666666666667 381.74585037231446 358.3333333333333 443.97918370564776 370 443.0458503723145C381.66666666666663 442.11251703898114 378.33333333333337 379.59585037231443 390 372.24585037231446C401.66666666666663 364.89585037231444 398.33333333333337 415.6291837056478 410 417.84585037231443C421.66666666666663 420.0625170389811 418.33333333333337 374.36251703898114 430 379.84585037231443C441.66666666666663 385.3291837056478 438.33333333333337 435.59585037231443 450 436.64585037231444C461.66666666666663 437.69585037231445 458.33333333333337 392.19585037231445 470 383.44585037231445C481.66666666666663 374.69585037231445 478.33333333333337 413.0625170389811 490 406.64585037231444C501.66666666666663 400.22918370564776 498.33333333333337 351.99585037231446 510 361.44585037231445C521.6666666666667 370.89585037231444 518.3333333333333 430.7625170389811 530 439.0458503723145C541.6666666666667 447.3291837056478 544.1666666666667 404.19585037231445 550 389.84585037231443 " transform="rotate(45, 400, 400)"></path><path d="M262.5 435.42535934448244C267.84722222222223 420.56008156670464 270.1388888888889 394.19063712226017 280.8333333333333 384.45869267781575C291.52777777777777 374.7267482333713 288.47222222222223 408.9031371222602 299.16666666666663 402.05869267781577C309.8611111111111 395.21424823337134 306.80555555555554 355.8586926778157 317.5 360.9920260111491C328.19444444444446 366.12535934448243 325.1388888888889 414.84619267781574 335.8333333333333 419.65869267781574C346.52777777777777 424.47119267781574 343.47222222222223 371.7170260111491 354.1666666666667 377.4920260111491C364.86111111111114 383.2670260111491 361.80555555555554 440.3142482333713 372.5 439.45869267781575C383.19444444444446 438.6031371222602 380.13888888888886 381.2961926778157 390.83333333333337 374.55869267781577C401.5277777777778 367.82119267781576 398.4722222222222 414.3267482333713 409.16666666666663 416.3586926778157C419.8611111111111 418.3906371222602 416.80555555555554 376.4989704555935 427.5 381.5253593444824C438.19444444444446 386.5517482333713 435.1388888888889 432.6295260111491 445.83333333333337 433.5920260111491C456.5277777777777 434.5545260111491 453.4722222222223 392.84619267781574 464.16666666666663 384.8253593444824C474.8611111111111 376.8045260111491 471.80555555555554 411.97397045559353 482.5 406.0920260111491C493.19444444444446 400.2100815667046 490.1388888888889 355.99619267781577 500.83333333333337 364.65869267781574C511.5277777777777 373.32119267781576 508.4722222222223 428.19897045559355 519.1666666666667 435.7920260111491C529.8611111111111 443.3850815667046 532.1527777777778 403.84619267781574 537.5 390.6920260111491 " transform="rotate(41.25, 400, 400)"></path><path d="M275 432.20487213134766C279.8611111111111 418.69098324245874 281.94444444444446 394.71876102023657 291.6666666666667 385.87153879801434C301.3888888888889 377.0243165757921 298.6111111111111 408.09376102023657 308.33333333333337 401.87153879801434C318.05555555555554 395.6493165757921 315.27777777777777 359.87153879801434 325 364.53820546468097C334.72222222222223 369.20487213134766 331.94444444444446 413.49653879801434 341.6666666666667 417.87153879801434C351.3888888888889 422.24653879801434 348.6111111111111 374.28820546468097 358.3333333333333 379.53820546468097C368.05555555555554 384.78820546468097 365.27777777777777 436.6493165757921 375 435.87153879801434C384.72222222222223 435.09376102023657 381.94444444444446 382.99653879801434 391.6666666666667 376.87153879801434C401.3888888888889 370.74653879801434 398.6111111111111 413.0243165757921 408.33333333333337 414.87153879801434C418.05555555555554 416.71876102023657 415.27777777777777 378.6354276869032 425 383.20487213134766C434.7222222222222 387.7743165757921 431.94444444444446 429.66320546468097 441.66666666666663 430.53820546468097C451.3888888888889 431.41320546468097 448.6111111111111 393.49653879801434 458.33333333333337 386.20487213134766C468.05555555555554 378.91320546468097 465.2777777777778 410.8854276869032 475 405.53820546468097C484.7222222222222 400.19098324245874 481.94444444444446 359.99653879801434 491.66666666666663 367.87153879801434C501.3888888888889 375.74653879801434 498.6111111111111 425.6354276869032 508.33333333333337 432.53820546468097C518.0555555555555 439.44098324245874 520.1388888888889 403.49653879801434 525 391.53820546468097 " transform="rotate(37.5, 400, 400)"></path><path d="M287.5 428.98438491821287C291.875 416.8218849182129 293.75 395.2468849182129 302.5 387.2843849182129C311.25 379.3218849182129 308.75 407.2843849182129 317.5 401.6843849182129C326.25 396.0843849182129 323.75 363.8843849182129 332.5 368.0843849182129C341.25 372.2843849182129 338.75 412.1468849182129 347.5 416.0843849182129C356.25 420.0218849182129 353.75 376.85938491821287 362.5 381.5843849182129C371.25 386.3093849182129 368.75 432.98438491821287 377.5 432.2843849182129C386.25 431.5843849182129 383.75 384.6968849182129 392.5 379.1843849182129C401.25 373.67188491821287 398.75 411.7218849182129 407.5 413.3843849182129C416.25 415.04688491821287 413.75 380.7718849182129 422.5 384.8843849182129C431.25 388.9968849182129 428.75 426.6968849182129 437.5 427.48438491821287C446.25 428.2718849182129 443.75 394.1468849182129 452.5 387.5843849182129C461.25 381.0218849182129 458.75 409.79688491821287 467.5 404.98438491821287C476.25 400.17188491821287 473.75 363.9968849182129 482.5 371.0843849182129C491.25 378.17188491821287 488.75 423.0718849182129 497.5 429.2843849182129C506.25 435.4968849182129 508.125 403.1468849182129 512.5 392.3843849182129 " transform="rotate(33.75, 400, 400)"></path><path d="M300 425.76390342712403C303.8888888888889 414.9527923160129 305.55555555555554 395.77501453823515 313.3333333333333 388.6972367604574C321.1111111111111 381.6194589826796 318.8888888888889 406.47501453823514 326.6666666666667 401.4972367604574C334.44444444444446 396.51945898267957 332.22222222222223 367.89723676045736 340 371.6305700937907C347.77777777777777 375.363903427124 345.55555555555554 410.7972367604574 353.33333333333337 414.2972367604574C361.1111111111111 417.7972367604574 358.8888888888889 379.4305700937907 366.6666666666667 383.6305700937907C374.44444444444446 387.8305700937907 372.22222222222223 429.3194589826796 380 428.6972367604574C387.77777777777777 428.07501453823517 385.55555555555554 386.39723676045736 393.3333333333333 381.4972367604573C401.11111111111114 376.59723676045735 398.88888888888886 410.4194589826796 406.6666666666667 411.89723676045736C414.44444444444446 413.3750145382351 412.22222222222223 382.9083478715685 420 386.56390342712405C427.77777777777777 390.2194589826796 425.55555555555554 423.7305700937907 433.33333333333337 424.4305700937907C441.1111111111111 425.1305700937907 438.8888888888889 394.7972367604574 446.66666666666663 388.963903427124C454.44444444444446 383.1305700937907 452.22222222222223 408.7083478715685 460 404.4305700937907C467.77777777777777 400.1527923160129 465.55555555555554 367.9972367604573 473.33333333333337 374.29723676045734C481.1111111111111 380.59723676045735 478.8888888888889 420.50834787156845 486.66666666666663 426.0305700937907C494.44444444444446 431.5527923160129 496.1111111111111 402.7972367604574 500 393.2305700937907 " transform="rotate(30, 400, 400)"></path><path d="M312.5 422.54340476989745C315.90277777777777 413.0836825476752 317.3611111111111 396.3031269921197 324.1666666666667 390.1100714365641C330.97222222222223 383.9170158810086 329.02777777777777 405.66562699211966 335.8333333333333 401.31007143656416C342.6388888888889 396.95451588100855 340.69444444444446 371.9100714365641 347.5 375.1767381032308C354.30555555555554 378.4434047698975 352.3611111111111 409.44757143656415 359.16666666666663 412.51007143656415C365.97222222222223 415.57257143656415 364.02777777777777 382.00173810323076 370.83333333333337 385.6767381032308C377.6388888888889 389.3517381032308 375.69444444444446 425.6545158810086 382.5 425.1100714365641C389.30555555555554 424.5656269921197 387.3611111111111 388.0975714365641 394.1666666666667 383.81007143656416C400.97222222222223 379.52257143656414 399.02777777777777 409.11701588100857 405.8333333333333 410.4100714365641C412.6388888888889 411.7031269921197 410.69444444444446 385.0447936587864 417.5 388.24340476989744C424.30555555555554 391.44201588100856 422.36111111111114 420.7642381032308 429.1666666666667 421.37673810323076C435.97222222222223 421.9892381032308 434.02777777777777 395.44757143656415 440.83333333333337 390.34340476989746C447.6388888888889 385.2392381032308 445.69444444444446 407.61979365878636 452.5 403.87673810323076C459.30555555555554 400.1336825476752 457.3611111111111 371.99757143656416 464.16666666666663 377.51007143656415C470.9722222222222 383.02257143656414 469.0277777777778 417.94479365878635 475.83333333333337 422.7767381032308C482.6388888888889 427.60868254767524 484.0972222222222 402.44757143656415 487.5 394.0767381032308 " transform="rotate(26.25, 400, 400)"></path><path d="M325 419.3229270935059C327.9166666666667 411.21459376017253 329.1666666666667 396.8312604268392 335 391.52292709350587C340.8333333333333 386.21459376017253 339.1666666666667 404.8562604268392 345 401.12292709350584C350.8333333333333 397.38959376017254 349.1666666666667 375.92292709350585 355 378.72292709350586C360.83333333333337 381.52292709350587 359.16666666666663 408.09792709350586 365 410.72292709350586C370.83333333333337 413.34792709350586 369.16666666666663 384.5729270935059 375 387.72292709350586C380.83333333333337 390.87292709350584 379.16666666666663 421.9895937601725 385 421.52292709350587C390.8333333333333 421.0562604268392 389.1666666666667 389.79792709350585 395 386.12292709350584C400.8333333333333 382.4479270935059 399.1666666666667 407.81459376017256 405 408.92292709350585C410.8333333333333 410.0312604268392 409.1666666666667 387.1812604268392 415 389.92292709350585C420.8333333333333 392.6645937601725 419.1666666666667 417.79792709350585 425 418.3229270935059C430.8333333333333 418.84792709350586 429.1666666666667 396.09792709350586 435 391.72292709350586C440.8333333333333 387.34792709350586 439.1666666666667 406.5312604268392 445 403.3229270935059C450.8333333333333 400.1145937601725 449.1666666666667 375.99792709350584 455 380.72292709350586C460.83333333333337 385.4479270935059 459.16666666666663 415.38126042683916 465 419.52292709350587C470.83333333333337 423.6645937601725 472.08333333333337 402.09792709350586 475 394.92292709350585 " transform="rotate(22.5, 400, 400)"></path><path d="M337.5 416.1024341583252C339.93055555555554 409.34548971388074 340.97222222222223 397.35937860276965 345.8333333333333 392.9357674916585C350.69444444444446 388.5121563805474 349.30555555555554 404.04687860276965 354.1666666666667 400.9357674916585C359.02777777777777 397.8246563805474 357.6388888888889 379.9357674916585 362.5 382.2691008249919C367.3611111111111 384.6024341583252 365.97222222222223 406.7482674916585 370.83333333333337 408.9357674916585C375.69444444444446 411.1232674916585 374.30555555555554 387.1441008249919 379.16666666666663 389.7691008249919C384.02777777777777 392.3941008249919 382.6388888888889 418.3246563805474 387.5 417.9357674916585C392.3611111111111 417.54687860276965 390.97222222222223 391.4982674916585 395.83333333333337 388.4357674916585C400.69444444444446 385.3732674916585 399.30555555555554 406.5121563805474 404.1666666666667 407.4357674916585C409.02777777777777 408.35937860276965 407.6388888888889 389.31771193610297 412.5 391.6024341583252C417.3611111111111 393.8871563805474 415.97222222222223 414.8316008249919 420.8333333333333 415.2691008249919C425.69444444444446 415.7066008249919 424.30555555555554 396.7482674916585 429.1666666666667 393.1024341583252C434.02777777777777 389.4566008249919 432.6388888888889 405.44271193610297 437.5 402.7691008249919C442.3611111111111 400.09548971388074 440.97222222222223 379.9982674916585 445.8333333333333 383.9357674916585C450.69444444444446 387.8732674916585 449.30555555555554 412.81771193610297 454.1666666666667 416.2691008249919C459.02777777777777 419.72048971388074 460.06944444444446 401.7482674916585 462.5 395.7691008249919 " transform="rotate(18.75, 400, 400)"></path><path d="M350 412.88195648193357C351.94444444444446 407.476400926378 352.77777777777777 397.88751203748916 356.6666666666667 394.34862314860027C360.55555555555554 390.8097342597114 359.44444444444446 403.2375120374892 363.3333333333333 400.74862314860025C367.22222222222223 398.25973425971137 366.1111111111111 383.9486231486003 370 385.8152898152669C373.8888888888889 387.6819564819336 372.77777777777777 405.3986231486003 376.6666666666667 407.1486231486003C380.55555555555554 408.8986231486003 379.44444444444446 389.71528981526694 383.33333333333337 391.8152898152669C387.22222222222223 393.91528981526693 386.1111111111111 414.6597342597114 390 414.34862314860027C393.8888888888889 414.03751203748914 392.77777777777777 393.1986231486003 396.66666666666663 390.74862314860025C400.55555555555554 388.29862314860026 399.44444444444446 405.20973425971135 403.33333333333337 405.9486231486003C407.22222222222223 406.68751203748917 406.1111111111111 391.4541787041558 410 393.2819564819336C413.8888888888889 395.1097342597114 412.77777777777777 411.8652898152669 416.6666666666667 412.21528981526694C420.55555555555554 412.56528981526696 419.44444444444446 397.3986231486003 423.3333333333333 394.4819564819336C427.22222222222223 391.5652898152669 426.1111111111111 404.3541787041558 430 402.21528981526694C433.8888888888889 400.076400926378 432.77777777777777 383.99862314860025 436.6666666666667 387.1486231486003C440.55555555555554 390.29862314860026 439.44444444444446 410.25417870415583 443.3333333333333 413.01528981526695C447.22222222222223 415.7764009263781 448.05555555555554 401.3986231486003 450 396.6152898152669 " transform="rotate(15, 400, 400)"></path><path d="M362.5 409.6614616394043C363.9583333333333 405.60729497273763 364.5833333333333 398.41562830607097 367.5 395.7614616394043C370.4166666666667 393.10729497273763 369.5833333333333 402.42812830607096 372.5 400.5614616394043C375.4166666666667 398.6947949727376 374.5833333333333 387.9614616394043 377.5 389.3614616394043C380.4166666666667 390.7614616394043 379.5833333333333 404.0489616394043 382.5 405.3614616394043C385.4166666666667 406.6739616394043 384.5833333333333 392.2864616394043 387.5 393.8614616394043C390.4166666666667 395.4364616394043 389.5833333333333 410.9947949727376 392.5 410.7614616394043C395.41666666666663 410.528128306071 394.58333333333337 394.8989616394043 397.5 393.0614616394043C400.41666666666663 391.2239616394043 399.58333333333337 403.90729497273765 402.5 404.4614616394043C405.41666666666663 405.015628306071 404.58333333333337 393.590628306071 407.5 394.9614616394043C410.41666666666663 396.3322949727376 409.58333333333337 408.8989616394043 412.5 409.1614616394043C415.41666666666663 409.4239616394043 414.58333333333337 398.0489616394043 417.5 395.8614616394043C420.41666666666663 393.6739616394043 419.58333333333337 403.265628306071 422.5 401.6614616394043C425.41666666666663 400.0572949727376 424.58333333333337 387.9989616394043 427.5 390.3614616394043C430.4166666666667 392.7239616394043 429.5833333333333 407.69062830607095 432.5 409.7614616394043C435.4166666666667 411.8322949727376 436.0416666666667 401.0489616394043 437.5 397.4614616394043 " transform="rotate(11.25, 400, 400)"></path><path d="M375 406.4409744262695C375.97222222222223 403.73819664849174 376.3888888888889 398.9437522040473 378.3333333333333 397.17430775960287C380.27777777777777 395.4048633151584 379.72222222222223 401.6187522040473 381.6666666666667 400.37430775960286C383.6111111111111 399.12986331515845 383.05555555555554 391.9743077596029 385 392.9076410929362C386.94444444444446 393.84097442626955 386.3888888888889 402.6993077596029 388.3333333333333 403.5743077596029C390.27777777777777 404.4493077596029 389.72222222222223 394.8576410929362 391.6666666666667 395.9076410929362C393.6111111111111 396.9576410929362 393.05555555555554 407.32986331515843 395 407.17430775960287C396.94444444444446 407.0187522040473 396.3888888888889 396.5993077596029 398.3333333333333 395.37430775960286C400.27777777777777 394.14930775960283 399.72222222222223 402.6048633151584 401.6666666666667 402.9743077596029C403.6111111111111 403.3437522040473 403.05555555555554 395.7270855373806 405 396.6409744262695C406.94444444444446 397.5548633151584 406.3888888888889 405.9326410929362 408.33333333333337 406.1076410929362C410.27777777777777 406.2826410929362 409.72222222222223 398.69930775960285 411.66666666666663 397.24097442626953C413.6111111111111 395.7826410929362 413.05555555555554 402.17708553738066 415 401.1076410929362C416.94444444444446 400.03819664849175 416.3888888888889 391.99930775960286 418.33333333333337 393.57430775960285C420.27777777777777 395.14930775960283 419.72222222222223 405.12708553738065 421.66666666666663 406.5076410929362C423.6111111111111 407.88819664849177 424.02777777777777 400.69930775960285 425 398.3076410929362 " transform="rotate(7.5, 400, 400)"></path><path d="M387.5 403.22049102783205C387.9861111111111 401.86910213894316 388.19444444444446 399.4718799167209 389.1666666666667 398.5871576944987C390.1388888888889 397.7024354722765 389.8611111111111 400.8093799167209 390.8333333333333 400.1871576944987C391.80555555555554 399.5649354722765 391.52777777777777 395.9871576944987 392.5 396.45382436116535C393.47222222222223 396.92049102783204 393.19444444444446 401.3496576944987 394.1666666666667 401.7871576944987C395.1388888888889 402.2246576944987 394.8611111111111 397.42882436116537 395.8333333333333 397.95382436116535C396.80555555555554 398.4788243611654 396.52777777777777 403.6649354722765 397.5 403.5871576944987C398.47222222222223 403.50937991672095 398.19444444444446 398.2996576944987 399.1666666666667 397.6871576944987C400.1388888888889 397.0746576944987 399.8611111111111 401.30243547227644 400.8333333333333 401.4871576944987C401.80555555555554 401.6718799167209 401.52777777777777 397.8635465833876 402.5 398.320491027832C403.47222222222223 398.77743547227647 403.19444444444446 402.96632436116533 404.1666666666667 403.05382436116537C405.1388888888889 403.14132436116535 404.8611111111111 399.3496576944987 405.8333333333333 398.62049102783203C406.80555555555554 397.89132436116535 406.52777777777777 401.0885465833876 407.5 400.55382436116537C408.47222222222223 400.01910213894314 408.19444444444446 395.9996576944987 409.1666666666667 396.7871576944987C410.1388888888889 397.5746576944987 409.8611111111111 402.5635465833876 410.8333333333333 403.25382436116536C411.80555555555554 403.94410213894315 412.0138888888889 400.3496576944987 412.5 399.15382436116533 " transform="rotate(3.75, 400, 400)"></path></g></svg>